<?xml version="1.0" encoding="utf-8"?>
<!-- Generator: Adobe Illustrator 13.0.0, SVG Export Plug-In . SVG Version: 6.00 Build 14948)  -->
<!DOCTYPE svg PUBLIC "-//W3C//DTD SVG 1.1//EN" "http://www.w3.org/Graphics/SVG/1.1/DTD/svg11.dtd">
<svg version="1.1" xmlns="http://www.w3.org/2000/svg" xmlns:xlink="http://www.w3.org/1999/xlink" x="0px" y="0px" width="600px"
	 height="800px" viewBox="0 0 600 800" enable-background="new 0 0 600 800" xml:space="preserve">
<g id="Layer_5_copy">
	<path fill="#FAC529" d="M330.827,648.78c-26.87,0.614-48.155,22.896-47.541,49.765c0.354,15.48,7.906,29.096,19.376,37.75
		c-0.978,1.276-2.239,2.679-3.912,4.205c-10.73,9.793-14.004,8.147-11.628,10.684c1.515,1.617,12.51,0.898,22.545-2.517
		c4.099-1.395,7.912-2.878,10.628-3.978c4.08,1.003,8.354,1.5,12.754,1.399c26.873-0.614,48.159-22.896,47.545-49.766
		S357.699,648.167,330.827,648.78z"/>
	
		<rect x="292.984" y="676.518" transform="matrix(0.9417 -0.3365 0.3365 0.9417 -216.1772 152.8994)" fill="none" width="80.081" height="47.2"/>
	
		<text transform="matrix(0.9417 -0.3365 0.3365 0.9417 301.7119 731.4814)" fill="#FFFFFF" font-family="'Nunito-ExtraBold'" font-size="60">HI!</text>
</g>
<g id="bowl_copy">
	<path fill="none" stroke="#FAC529" stroke-width="9.8056" stroke-linecap="round" stroke-linejoin="round" d="M455.446,547.72
		c13.089,35.842,39.278,164.896-98.576,215.255l0.031-0.011c-137.865,50.338-201.01-65.222-214.1-101.063"/>
	<path fill="none" stroke="#FAC529" stroke-width="1.9695" d="M315.012,623.575c-4.473-11.523-5.478-23.635-3.464-35.116
		c-8.36,7.173-12.59,18.583-10.053,30.06c0.001,0.009,0.008,0.016,0.009,0.023c0.807,3.499-6.219,8.115-15.701,10.309
		c-2.414,0.559-4.75,0.902-6.909,1.053c2.027,2.697,3.863,5.585,5.491,8.646c8.161-1.741,15.593-6.74,20.151-14.483
		c0.002-0.003,0.004-0.011,0.006-0.015C305.743,621.959,309.877,621.918,315.012,623.575z"/>
	<path fill="none" stroke="#FAC529" stroke-width="1.9695" d="M265.868,607.663c-3.064,0.651-6.209,1.099-9.426,1.311
		c-1.339,0.089-2.67,0.123-3.995,0.13c4.771,2.066,9.302,4.694,13.49,7.85C265.692,613.829,265.672,610.727,265.868,607.663z"/>
	<path fill="none" stroke="#FAC529" stroke-width="1.9695" d="M213.353,641.548c-4.54,2.099-8.304,5.177-11.206,8.847
		c1.989,2.147,4.315,4.053,6.969,5.616c8.203,4.833,17.725,5.437,26.036,2.461c-6.366-5.438-11.5-11.933-15.291-19.069
		C217.663,639.871,215.479,640.563,213.353,641.548z"/>
	<path fill="none" stroke="#FAC529" stroke-width="1.9695" d="M354.116,619.152c-2.167-0.816-4.315-1.738-6.423-2.797"/>
	<path fill="none" stroke="#FAC529" stroke-width="1.9695" d="M335.146,625.893c-3.234,1.508-6.408,2.55-9.211,3.11
		c0.573,0.387,1.095,0.785,1.626,1.179"/>
	<path fill="none" stroke="#FAC529" stroke-width="1.9695" d="M399.169,579.069c-4.57-5.023-10.628-8.322-17.152-9.541
		c3.813,4.535,7.039,9.626,9.547,15.185C394.337,583.254,396.91,581.374,399.169,579.069z"/>
	<path fill="none" stroke="#FAC529" stroke-width="5.9084" stroke-linecap="round" stroke-linejoin="round" d="M300.152,616.751
		c0.206,0.142,0.403,0.291,0.566,0.453C300.555,617.042,300.357,616.893,300.152,616.751z"/>
	<path fill="none" stroke="#FAC529" stroke-width="5.9084" stroke-linecap="round" stroke-linejoin="round" d="M300.756,617.249
		c0.178,0.186,0.335,0.376,0.457,0.578C301.091,617.625,300.934,617.435,300.756,617.249z"/>
	<path fill="none" stroke="#FAC529" stroke-width="5.9084" stroke-linecap="round" stroke-linejoin="round" d="M300.718,617.204
		c0.015,0.013,0.025,0.03,0.038,0.045C300.743,617.234,300.732,617.217,300.718,617.204z"/>
	<path fill="none" stroke="#FAC529" stroke-width="5.9084" stroke-linecap="round" stroke-linejoin="round" d="M300.028,616.653
		c0.046,0.029,0.08,0.064,0.124,0.098C300.108,616.718,300.074,616.683,300.028,616.653z"/>
	<path fill="none" stroke="#FAC529" stroke-width="5.9084" stroke-linecap="round" stroke-linejoin="round" d="M348.156,612.018
		c0.363-0.253,0.733-0.532,1.105-0.832c-0.378,0.306-0.743,0.554-1.113,0.81C348.15,612,348.155,612.011,348.156,612.018z"/>
	<path fill="none" stroke="#FAC529" stroke-width="5.9084" stroke-linecap="round" stroke-linejoin="round" d="M299.412,616.319
		c0.214,0.106,0.433,0.212,0.616,0.334C299.844,616.531,299.626,616.426,299.412,616.319z"/>
	<path fill="none" stroke="#FAC529" stroke-width="5.9084" stroke-linecap="round" stroke-linejoin="round" d="M347.635,612.366
		c0.144-0.09,0.285-0.185,0.43-0.284c-0.004-0.004-0.008-0.012-0.011-0.018C347.913,612.156,347.771,612.279,347.635,612.366z"/>
	<path fill="none" stroke="#FAC529" stroke-width="5.9084" stroke-linecap="round" stroke-linejoin="round" d="M359.193,598.354
		c0.011-0.02,0.02-0.04,0.031-0.06c0,0,0,0-0.001-0.001C359.213,598.314,359.204,598.335,359.193,598.354z"/>
	<path fill="none" stroke="#FAC529" stroke-width="5.9084" stroke-linecap="round" stroke-linejoin="round" d="M348.054,612.064
		c0.003,0.006,0.007,0.014,0.011,0.018c0.002,0,0.002,0,0.002,0c-0.004-0.008-0.006-0.015-0.013-0.021
		C348.054,612.064,348.054,612.064,348.054,612.064z"/>
	<path fill="none" stroke="#FAC529" stroke-width="5.9084" stroke-linecap="round" stroke-linejoin="round" d="M301.213,617.827
		c0.007,0.018,0.011,0.034,0.02,0.052C301.224,617.861,301.22,617.845,301.213,617.827z"/>
	<path fill="none" stroke="#FAC529" stroke-width="5.9084" stroke-linecap="round" stroke-linejoin="round" d="M348.054,612.061
		c0.007,0.007,0.009,0.014,0.013,0.021c0.029-0.02,0.062-0.042,0.09-0.064c-0.001-0.007-0.006-0.018-0.008-0.022
		C348.116,612.016,348.085,612.041,348.054,612.061z"/>
	<path fill="none" stroke="#FAC529" stroke-width="5.9084" stroke-linecap="round" stroke-linejoin="round" d="M295.579,615.245
		c0.169,0.021,0.321,0.057,0.485,0.083C295.9,615.302,295.748,615.266,295.579,615.245z"/>
	<path fill="none" stroke="#FAC529" stroke-width="5.9084" stroke-linecap="round" stroke-linejoin="round" d="M271.318,649.719
		c-0.542-0.35-1.098-0.696-1.67-1.033c-8.381-4.941-16.656-6.438-18.481-3.342c-0.004,0.005-0.004,0.012-0.008,0.017
		c0.002-0.001,0-0.004,0.002-0.004c-1.164,2.006,0.679,5.433,4.366,8.938"/>
	<path fill="none" stroke="#FAC529" stroke-width="5.9084" stroke-linecap="round" stroke-linejoin="round" d="M197.351,614.941
		c0.169-0.115,0.329-0.238,0.466-0.379c0-0.001,0-0.001,0.002-0.004C197.681,614.7,197.522,614.826,197.351,614.941z"/>
	<path fill="none" stroke="#FAC529" stroke-width="5.9084" stroke-linecap="round" stroke-linejoin="round" d="M239.202,578.934
		c-8.432-4.854-16.719-6.266-18.51-3.148c-0.121,0.209-0.204,0.436-0.259,0.673c-0.092,0.387-0.099,0.808-0.033,1.259
		c0.006,0.031,0.004,0.059,0.01,0.09c0.074,0.445,0.233,0.92,0.448,1.415c0.025,0.06,0.046,0.117,0.075,0.179
		c0.225,0.482,0.518,0.985,0.862,1.5c0.058,0.082,0.108,0.164,0.166,0.246c0.356,0.51,0.771,1.034,1.234,1.566
		c0.082,0.09,0.162,0.184,0.245,0.276c0.479,0.531,1.008,1.068,1.583,1.608c0.098,0.094,0.202,0.186,0.302,0.275
		c0.598,0.55,1.232,1.095,1.919,1.64c0.1,0.076,0.208,0.158,0.307,0.236c0.718,0.558,1.47,1.109,2.271,1.65
		c0.073,0.051,0.15,0.099,0.225,0.148c0.851,0.566,1.737,1.124,2.668,1.66c0.509,0.294,1.023,0.576,1.533,0.845
		c0.198,0.105,0.395,0.198,0.591,0.299c0.311,0.159,0.621,0.32,0.93,0.468c0.235,0.115,0.468,0.22,0.705,0.324
		c0.263,0.123,0.527,0.249,0.789,0.362c0.255,0.11,0.504,0.209,0.756,0.313c0.238,0.1,0.477,0.2,0.711,0.293
		c0.262,0.102,0.515,0.194,0.773,0.287c0.217,0.081,0.438,0.161,0.654,0.236c0.263,0.091,0.523,0.173,0.784,0.255
		c0.199,0.064,0.395,0.127,0.59,0.186c0.266,0.079,0.528,0.147,0.785,0.218c0.179,0.048,0.36,0.094,0.537,0.138
		c0.266,0.063,0.523,0.121,0.779,0.175c0.159,0.035,0.317,0.066,0.475,0.096c0.261,0.049,0.516,0.091,0.769,0.128
		c0.139,0.021,0.277,0.041,0.412,0.059c0.256,0.031,0.506,0.057,0.749,0.075c0.121,0.008,0.236,0.018,0.352,0.021
		c0.248,0.016,0.491,0.023,0.724,0.022c0.097-0.003,0.194-0.004,0.29-0.008c0.237-0.006,0.467-0.021,0.686-0.043
		c0.08-0.008,0.154-0.021,0.231-0.031c0.221-0.03,0.438-0.063,0.641-0.11c0.062-0.015,0.118-0.033,0.175-0.051
		c0.206-0.054,0.404-0.113,0.587-0.188c0.042-0.016,0.079-0.038,0.122-0.057c0.182-0.082,0.359-0.168,0.519-0.273
		c0.025-0.018,0.044-0.035,0.067-0.054c0.164-0.111,0.317-0.231,0.446-0.373c0.132-0.141,0.257-0.289,0.354-0.455
		C253.023,590.248,247.638,583.789,239.202,578.934z"/>
	<path fill="none" stroke="#FAC529" stroke-width="5.9084" stroke-linecap="round" stroke-linejoin="round" d="M299.154,616.181
		c0.096,0.042,0.171,0.094,0.257,0.139C299.325,616.274,299.25,616.223,299.154,616.181z"/>
	<path fill="none" stroke="#FAC529" stroke-width="5.9084" stroke-linecap="round" stroke-linejoin="round" d="M189.376,614.978
		c0.143,0.038,0.281,0.075,0.418,0.109c-0.135-0.034-0.275-0.075-0.414-0.111C189.378,614.976,189.378,614.976,189.376,614.978z"/>
	<path fill="none" stroke="#FAC529" stroke-width="5.9084" stroke-linecap="round" stroke-linejoin="round" d="M189.242,614.938
		c0.044,0.015,0.089,0.026,0.134,0.04c0.002-0.002,0.002-0.002,0.004-0.002C189.334,614.964,189.288,614.952,189.242,614.938z"/>
	<path fill="none" stroke="#FAC529" stroke-width="5.9084" stroke-linecap="round" stroke-linejoin="round" d="M251.161,645.356
		c-0.002,0,0,0.003-0.002,0.004c-1.16,2.006,0.682,5.43,4.367,8.936l0.001-0.001C251.84,650.789,249.998,647.362,251.161,645.356z"
		/>
	<path fill="none" stroke="#FAC529" stroke-width="5.9084" stroke-linecap="round" stroke-linejoin="round" d="M294.109,615.098
		c0.51,0.034,1,0.082,1.469,0.147C295.11,615.18,294.619,615.132,294.109,615.098z"/>
	<path fill="none" stroke="#FAC529" stroke-width="5.9084" stroke-linecap="round" stroke-linejoin="round" d="M298.113,615.786
		c0.107,0.034,0.195,0.076,0.296,0.111C298.309,615.862,298.22,615.82,298.113,615.786z"/>
	<path fill="none" stroke="#FAC529" stroke-width="5.9084" stroke-linecap="round" stroke-linejoin="round" d="M298.41,615.897
		c0.257,0.091,0.517,0.179,0.745,0.283C298.927,616.076,298.667,615.988,298.41,615.897z"/>
	<path fill="none" stroke="#FAC529" stroke-width="5.9084" stroke-linecap="round" stroke-linejoin="round" d="M296.917,615.475
		c0.174,0.034,0.323,0.085,0.488,0.126C297.24,615.56,297.091,615.511,296.917,615.475z"/>
	<path fill="none" stroke="#FAC529" stroke-width="5.9084" stroke-linecap="round" stroke-linejoin="round" d="M296.063,615.328
		c0.288,0.046,0.582,0.089,0.854,0.146C296.646,615.417,296.352,615.374,296.063,615.328z"/>
	<path fill="none" stroke="#FAC529" stroke-width="5.9084" stroke-linecap="round" stroke-linejoin="round" d="M359.225,598.295
		c0.13-0.26,0.267-0.519,0.394-0.777C359.491,597.776,359.354,598.033,359.225,598.295
		C359.225,598.295,359.225,598.295,359.225,598.295z"/>
	<path fill="none" stroke="#FAC529" stroke-width="5.9084" stroke-linecap="round" stroke-linejoin="round" d="M297.405,615.601
		c0.238,0.06,0.487,0.118,0.708,0.186C297.892,615.719,297.644,615.66,297.405,615.601z"/>
	<path fill="none" stroke="#FAC529" stroke-width="5.9084" stroke-linecap="round" stroke-linejoin="round" d="M313.664,543.874
		c2.271-1.088,3.782-2.381,4.221-3.732c0-0.003,0-0.003,0-0.003C317.449,541.493,315.928,542.786,313.664,543.874z"/>
	<path fill="none" stroke="#FAC529" stroke-width="5.9084" stroke-linecap="round" stroke-linejoin="round" d="M283.075,542.299
		c0.069,0.168,0.143,0.335,0.246,0.494c0.012,0.02,0.031,0.037,0.043,0.055c0.238,0.352,0.558,0.684,0.954,1.002
		c2.766,2.205,9.184,3.466,16.558,2.979c0.588-0.037,1.168-0.088,1.741-0.147c0.132-0.015,0.264-0.031,0.396-0.046
		c0.433-0.048,0.863-0.099,1.285-0.158c0.166-0.023,0.327-0.05,0.489-0.075c0.381-0.056,0.757-0.116,1.129-0.182
		c0.179-0.034,0.352-0.065,0.526-0.102c0.345-0.063,0.688-0.131,1.02-0.204c0.185-0.041,0.361-0.083,0.54-0.126
		c0.315-0.072,0.624-0.147,0.93-0.228c0.183-0.05,0.365-0.099,0.545-0.146c0.282-0.08,0.555-0.16,0.825-0.245
		c0.188-0.056,0.374-0.116,0.56-0.177c0.238-0.079,0.474-0.162,0.702-0.244c0.198-0.071,0.395-0.143,0.583-0.213
		c0.191-0.078,0.37-0.153,0.551-0.227c0.214-0.092,0.429-0.18,0.632-0.272c0.114-0.052,0.223-0.107,0.336-0.162
		c2.264-1.088,3.785-2.381,4.221-3.735c0,0,0,0,0,0.003c0.104-0.317,0.165-0.637,0.145-0.96c-0.237-3.587-8.298-5.97-18.006-5.334
		c-9.712,0.642-17.389,4.068-17.154,7.651c0.004,0.077,0.034,0.154,0.048,0.23c0.022,0.148,0.042,0.295,0.092,0.438
		C283.025,542.212,283.056,542.255,283.075,542.299z"/>
	<path fill="none" stroke="#FAC529" stroke-width="5.9084" stroke-linecap="round" stroke-linejoin="round" d="M408.742,520.146
		c-5.182,8.219-11.84,13.331-14.884,11.439c0.002,0,0.004,0.003,0.006,0.005C396.91,533.473,403.563,528.361,408.742,520.146z"/>
	<path fill="none" stroke="#FAC529" stroke-width="5.9084" stroke-linecap="round" stroke-linejoin="round" d="M442.09,568.713
		c4.323-25.104-6.23-51.465-28.756-66.257c0,0.002,0.002,0.005,0.004,0.007c0.215,0.297,0.385,0.646,0.509,1.049
		c0.011,0.03,0.011,0.071,0.02,0.103c0.349,1.191,0.335,2.789-0.031,4.669c-0.007,0.033-0.012,0.065-0.021,0.101
		c-0.057,0.287-0.127,0.584-0.199,0.884c-0.029,0.116-0.055,0.229-0.087,0.345c-0.067,0.264-0.146,0.535-0.227,0.809
		c-0.048,0.161-0.095,0.32-0.147,0.482c-0.079,0.252-0.165,0.505-0.254,0.763c-0.069,0.195-0.138,0.391-0.211,0.59
		c-0.089,0.239-0.179,0.482-0.276,0.726c-0.089,0.224-0.179,0.451-0.275,0.678c-0.094,0.229-0.192,0.46-0.297,0.691
		c-0.108,0.251-0.225,0.502-0.341,0.753c-0.103,0.22-0.205,0.44-0.313,0.659c-0.133,0.275-0.277,0.552-0.419,0.829
		c-0.105,0.206-0.209,0.412-0.319,0.617c-0.167,0.316-0.347,0.632-0.523,0.946c-0.098,0.172-0.189,0.343-0.29,0.517
		c-0.286,0.492-0.583,0.982-0.894,1.475c-5.179,8.215-11.832,13.326-14.878,11.444c3.176,2.046,5.822,4.598,7.964,7.46
		c7.424,9.927,8.426,23.773,1.415,34.883c-1.192,1.893-2.57,3.6-4.074,5.136c-2.259,2.305-4.832,4.185-7.605,5.644
		c-9.189,4.837-20.571,4.915-30.092-0.733c0,0,0.002,0.002,0.004,0.004c0.129,0.133,0.242,0.286,0.346,0.45
		c0.02,0.029,0.041,0.053,0.058,0.083c0.093,0.155,0.172,0.33,0.244,0.514c0.02,0.048,0.043,0.093,0.061,0.142
		c0.064,0.178,0.113,0.371,0.159,0.572c0.013,0.064,0.034,0.13,0.047,0.2c0.037,0.195,0.063,0.405,0.082,0.62
		c0.008,0.085,0.018,0.169,0.025,0.258c0.011,0.213,0.016,0.437,0.016,0.665c-0.002,0.103-0.002,0.208-0.006,0.315
		c-0.01,0.224-0.027,0.458-0.048,0.695c-0.012,0.125-0.025,0.25-0.041,0.378c-0.028,0.234-0.063,0.474-0.101,0.718
		c-0.026,0.146-0.052,0.293-0.081,0.442c-0.045,0.24-0.097,0.481-0.152,0.73c-0.037,0.166-0.079,0.333-0.122,0.502
		c-0.062,0.246-0.127,0.493-0.199,0.745c-0.052,0.184-0.111,0.373-0.171,0.559c-0.076,0.246-0.151,0.493-0.235,0.744
		c-0.073,0.206-0.15,0.421-0.227,0.632c-0.089,0.239-0.175,0.479-0.268,0.721c-0.091,0.233-0.188,0.469-0.286,0.7
		c-0.097,0.234-0.193,0.472-0.297,0.708c-0.109,0.252-0.229,0.509-0.347,0.765c-0.105,0.222-0.207,0.449-0.314,0.676
		c-0.127,0.259-0.264,0.518-0.394,0.777c-0.012,0.02-0.021,0.04-0.031,0.06c-0.107,0.212-0.213,0.424-0.326,0.64
		c-0.169,0.314-0.351,0.634-0.53,0.953c-0.101,0.179-0.195,0.354-0.298,0.532c-0.29,0.5-0.592,1.001-0.908,1.502
		c-0.573,0.912-1.169,1.775-1.774,2.606c-0.047,0.067-0.098,0.139-0.146,0.207c-0.576,0.782-1.162,1.52-1.753,2.219
		c-0.079,0.09-0.157,0.188-0.234,0.279c-0.575,0.667-1.151,1.286-1.725,1.865c-0.093,0.091-0.186,0.188-0.278,0.279
		c-0.565,0.556-1.129,1.065-1.684,1.526c-0.09,0.072-0.183,0.149-0.274,0.222c-0.372,0.3-0.742,0.579-1.105,0.832
		c-0.028,0.022-0.061,0.045-0.09,0.064c0,0,0,0-0.002,0c-0.145,0.1-0.286,0.194-0.43,0.284c-0.08,0.052-0.157,0.096-0.236,0.146
		c-0.532,0.324-1.053,0.602-1.548,0.808c-0.058,0.023-0.112,0.038-0.168,0.062c-0.505,0.198-0.991,0.341-1.445,0.396
		c-0.025,0.004-0.047,0.001-0.071,0.004c-0.464,0.05-0.898,0.026-1.287-0.085c-0.003,0-0.01,0.001-0.014,0
		c1.582,0.968,3.197,1.843,4.828,2.658c2.107,1.059,4.256,1.98,6.423,2.797"/>
	<path fill="none" stroke="#FAC529" stroke-width="5.9084" stroke-linecap="round" stroke-linejoin="round" d="M311.548,588.459
		c-2.014,11.481-1.009,23.593,3.464,35.116c0.585,0.19,1.179,0.392,1.789,0.627c0.47-0.92,1.201-1.897,2.169-2.902
		c0.016-0.018,0.032-0.034,0.048-0.055c0.211-0.214,0.435-0.433,0.666-0.648c0.081-0.075,0.157-0.152,0.241-0.228
		c0.203-0.188,0.422-0.377,0.642-0.565c0.123-0.108,0.244-0.213,0.371-0.319c0.206-0.169,0.419-0.339,0.635-0.511
		c0.162-0.124,0.323-0.247,0.487-0.374c0.207-0.155,0.419-0.312,0.634-0.467c0.195-0.138,0.391-0.276,0.588-0.41
		c0.208-0.145,0.416-0.288,0.634-0.431c0.226-0.147,0.456-0.292,0.688-0.441c0.208-0.13,0.413-0.261,0.628-0.392
		c0.26-0.155,0.529-0.312,0.798-0.467c0.198-0.116,0.397-0.232,0.601-0.347c0.318-0.175,0.643-0.347,0.971-0.519
		c0.168-0.089,0.333-0.182,0.506-0.268c0.506-0.26,1.021-0.513,1.55-0.76c2.103-0.979,4.181-1.758,6.147-2.343
		c0.093-0.028,0.188-0.06,0.277-0.087c0.45-0.129,0.893-0.244,1.329-0.353c0.06-0.015,0.12-0.034,0.181-0.048
		c0.967-0.237,1.894-0.416,2.776-0.543c0.02-0.001,0.041-0.007,0.061-0.008c0.13-0.019,0.254-0.029,0.381-0.045
		c-0.433-3.48,1.445-9.381,5.139-15.329c0.462-3.141,1.387-6.193,2.77-9.04c2.983-6.142,8.015-11.336,14.689-14.445
		c6.044-2.816,12.524-3.468,18.611-2.331c6.524,1.219,12.582,4.518,17.152,9.541c1.504-1.536,2.882-3.243,4.074-5.136
		c7.011-11.109,6.009-24.956-1.415-34.883c-16.5-6.9-35.73-7.103-53.222,1.043c-3.799,1.771-7.342,3.869-10.626,6.223
		C323.731,556.536,314.468,571.823,311.548,588.459z"/>
	<path fill="none" stroke="#FAC529" stroke-width="5.9084" stroke-linecap="round" stroke-linejoin="round" d="M265.868,607.663
		c-0.195,3.063-0.175,6.166,0.068,9.29c1.705,1.28,3.344,2.648,4.924,4.101c0.016-0.011,0.032-0.022,0.047-0.035
		c0.029-0.02,0.052-0.035,0.082-0.056c0.245-0.165,0.504-0.326,0.77-0.489c0.1-0.06,0.194-0.12,0.295-0.182
		c0.237-0.141,0.485-0.276,0.736-0.415c0.145-0.08,0.29-0.159,0.44-0.238c0.235-0.124,0.476-0.243,0.72-0.366
		c0.184-0.088,0.369-0.179,0.562-0.267c0.232-0.11,0.47-0.218,0.709-0.323c0.218-0.097,0.442-0.19,0.667-0.285
		c0.23-0.096,0.464-0.191,0.704-0.287c0.251-0.101,0.51-0.193,0.769-0.29c0.23-0.082,0.455-0.168,0.688-0.251
		c0.291-0.099,0.586-0.197,0.883-0.293c0.22-0.072,0.434-0.145,0.656-0.213c0.343-0.107,0.692-0.205,1.042-0.305
		c0.191-0.053,0.377-0.109,0.569-0.161c0.548-0.148,1.106-0.289,1.671-0.42c0.592-0.138,1.181-0.261,1.762-0.373
		c0.052-0.011,0.1-0.018,0.152-0.026c0.53-0.101,1.055-0.193,1.575-0.273c0.067-0.01,0.13-0.016,0.195-0.024
		c0.499-0.075,0.995-0.144,1.481-0.199c0.222-0.023,0.435-0.039,0.652-0.06c0.327-0.034,0.658-0.068,0.975-0.091
		c0.193-0.014,0.375-0.02,0.566-0.03c0.332-0.019,0.669-0.041,0.994-0.052c0.313-0.01,0.611-0.006,0.913-0.006
		c0.189,0,0.386-0.008,0.572-0.004c0.439,0.007,0.861,0.027,1.274,0.052c0.041,0.004,0.085,0.004,0.126,0.007
		c0.51,0.034,1,0.082,1.469,0.147c0.169,0.021,0.321,0.057,0.485,0.083c0.288,0.046,0.582,0.089,0.854,0.146
		c0.174,0.036,0.323,0.085,0.488,0.126c0.238,0.06,0.487,0.118,0.708,0.186c0.107,0.034,0.195,0.076,0.296,0.111
		c0.257,0.091,0.517,0.179,0.745,0.283c0.096,0.042,0.171,0.094,0.257,0.139c0.214,0.106,0.433,0.212,0.616,0.334
		c0.046,0.029,0.08,0.064,0.124,0.098c0.206,0.142,0.403,0.291,0.566,0.453c0.015,0.013,0.025,0.03,0.038,0.045
		c0.178,0.186,0.335,0.376,0.457,0.578c0.007,0.018,0.011,0.034,0.02,0.052c0.114,0.203,0.209,0.415,0.263,0.64
		c-2.538-11.477,1.692-22.887,10.053-30.06c2.92-16.636,12.184-31.923,26.433-42.143c-6.584-0.642-13.366-0.294-20.166,1.16
		C315.957,576.887,294.619,601.557,265.868,607.663z"/>
	<path fill="none" stroke="#FAC529" stroke-width="5.9084" stroke-linecap="round" stroke-linejoin="round" d="M284.317,543.85
		c2.763,2.205,9.182,3.466,16.558,2.979C293.501,547.315,287.083,546.055,284.317,543.85z"/>
	<path fill="none" stroke="#FAC529" stroke-width="5.9084" stroke-linecap="round" stroke-linejoin="round" d="M255.525,654.296
		c-3.685-3.506-5.526-6.93-4.367-8.936c-3.812,6.325-9.543,10.8-16.007,13.111c-8.311,2.976-17.833,2.372-26.036-2.461
		c-2.654-1.563-4.979-3.469-6.969-5.616c-8.816-9.529-10.899-23.957-4.331-35.832c-0.137,0.141-0.296,0.264-0.466,0.379
		c-0.018,0.012-0.033,0.026-0.05,0.036c-0.16,0.104-0.34,0.191-0.531,0.271c-0.041,0.017-0.074,0.038-0.116,0.054
		c-0.182,0.073-0.381,0.131-0.584,0.183c-0.063,0.014-0.12,0.033-0.18,0.047c-0.202,0.045-0.416,0.076-0.636,0.104
		c-0.079,0.012-0.158,0.023-0.241,0.031c-0.215,0.02-0.442,0.03-0.673,0.034c-0.102,0.003-0.204,0.004-0.31,0.004
		c-0.227-0.001-0.461-0.012-0.702-0.027c-0.124-0.007-0.247-0.018-0.374-0.028c-0.236-0.02-0.479-0.046-0.727-0.082
		c-0.142-0.019-0.289-0.039-0.436-0.064c-0.242-0.038-0.491-0.082-0.745-0.131c-0.164-0.032-0.327-0.069-0.495-0.106
		c-0.25-0.056-0.501-0.112-0.759-0.179c-0.137-0.034-0.275-0.071-0.418-0.109c-0.044-0.014-0.09-0.025-0.134-0.04
		c-0.252-0.07-0.506-0.142-0.764-0.22c-0.202-0.061-0.406-0.131-0.612-0.197c-0.254-0.082-0.506-0.164-0.764-0.258
		c-0.221-0.078-0.446-0.163-0.671-0.25c-0.248-0.092-0.494-0.185-0.749-0.287c-0.24-0.096-0.486-0.203-0.734-0.307
		c-0.242-0.104-0.48-0.205-0.725-0.314c-0.265-0.118-0.533-0.248-0.8-0.372c-0.23-0.112-0.459-0.216-0.692-0.33
		c-0.31-0.153-0.624-0.32-0.938-0.484c-0.19-0.101-0.381-0.193-0.575-0.299c-0.506-0.274-1.016-0.559-1.525-0.86
		c-0.917-0.543-1.792-1.106-2.633-1.679c-0.081-0.055-0.167-0.107-0.246-0.164c-0.785-0.543-1.524-1.097-2.228-1.654
		c-0.111-0.089-0.227-0.176-0.336-0.264c-0.667-0.542-1.291-1.089-1.873-1.633c-0.11-0.102-0.222-0.206-0.331-0.31
		c-0.558-0.536-1.071-1.069-1.539-1.601c-0.091-0.102-0.179-0.201-0.266-0.306c-0.45-0.527-0.856-1.047-1.202-1.555
		c-0.062-0.09-0.117-0.176-0.172-0.266c-0.339-0.514-0.624-1.015-0.841-1.494c-0.028-0.066-0.052-0.128-0.076-0.196
		c-0.208-0.49-0.365-0.964-0.434-1.404c-0.005-0.033-0.002-0.064-0.005-0.099c-0.062-0.448-0.052-0.87,0.042-1.252
		c0.004-0.012-0.002-0.026,0.002-0.033c-9.925,17.405-11.038,37.481-4.708,55.017c2.238,6.205,5.443,12.067,9.491,17.399"/>
	<path fill="none" stroke="#FAC529" stroke-width="5.9084" stroke-linecap="round" stroke-linejoin="round" d="M167.518,598.234
		c0.069,0.44,0.225,0.914,0.434,1.404c0.024,0.068,0.048,0.13,0.076,0.196c0.218,0.479,0.502,0.98,0.841,1.494
		c0.056,0.09,0.11,0.176,0.172,0.266c0.346,0.508,0.752,1.027,1.202,1.555c0.087,0.104,0.175,0.204,0.266,0.306
		c0.467,0.531,0.981,1.064,1.539,1.601c0.109,0.104,0.221,0.208,0.331,0.31c0.582,0.544,1.206,1.091,1.873,1.633
		c0.109,0.088,0.225,0.175,0.336,0.264c0.704,0.558,1.442,1.111,2.228,1.654c0.079,0.057,0.165,0.109,0.246,0.164
		c0.84,0.572,1.715,1.136,2.633,1.679c0.51,0.302,1.02,0.586,1.525,0.86c0.194,0.105,0.384,0.198,0.575,0.299
		c0.314,0.164,0.627,0.331,0.938,0.484c0.232,0.114,0.461,0.218,0.692,0.33c0.267,0.124,0.535,0.254,0.8,0.372
		c0.245,0.109,0.483,0.21,0.725,0.314c0.249,0.104,0.494,0.211,0.734,0.307c0.255,0.103,0.5,0.195,0.749,0.287
		c0.225,0.087,0.45,0.172,0.671,0.25c0.257,0.094,0.51,0.176,0.764,0.258c0.206,0.066,0.41,0.137,0.612,0.197
		c0.257,0.078,0.511,0.149,0.764,0.22c0.046,0.015,0.092,0.026,0.138,0.038c0.139,0.036,0.279,0.077,0.414,0.111
		c0.258,0.066,0.51,0.123,0.759,0.179c0.167,0.037,0.331,0.074,0.495,0.106c0.254,0.049,0.502,0.093,0.745,0.131
		c0.147,0.025,0.294,0.046,0.436,0.064c0.249,0.036,0.491,0.063,0.727,0.082c0.127,0.011,0.25,0.021,0.374,0.028
		c0.24,0.016,0.475,0.026,0.702,0.027c0.105,0,0.208-0.001,0.31-0.004c0.231-0.004,0.458-0.015,0.673-0.034
		c0.083-0.008,0.162-0.02,0.241-0.031c0.221-0.027,0.434-0.059,0.636-0.104c0.06-0.014,0.117-0.033,0.18-0.047
		c0.203-0.052,0.402-0.109,0.584-0.183c0.042-0.016,0.075-0.037,0.116-0.054c0.19-0.08,0.371-0.167,0.531-0.271
		c0.017-0.01,0.032-0.024,0.05-0.036c0.171-0.115,0.331-0.241,0.468-0.383c-0.002,0.003-0.002,0.003-0.002,0.004
		c0.136-0.141,0.261-0.291,0.359-0.456c0.596-1.012,0.419-2.389-0.365-3.953c-1.618-3.23-5.862-7.271-11.51-10.601
		c-8.383-4.94-16.656-6.439-18.479-3.342c-0.124,0.209-0.208,0.434-0.268,0.673c-0.094,0.382-0.104,0.804-0.042,1.252
		C167.516,598.17,167.512,598.201,167.518,598.234z"/>
	<path fill="none" stroke="#FAC529" stroke-width="5.9084" stroke-linecap="round" stroke-linejoin="round" d="M172.339,669.267
		c-4.048-5.332-7.253-11.194-9.491-17.399c-1.552,5.578-2.366,11.371-2.412,17.225"/>
	<path fill="none" stroke="#FAC529" stroke-width="5.9084" stroke-linecap="round" stroke-linejoin="round" d="M310.744,636.559
		c0.618-0.227,1.227-0.458,1.844-0.682c-0.556-0.402-1.126-0.8-1.636-1.208c-0.021-0.018-0.044-0.035-0.066-0.052
		c-4.981-4.003-7.676-8.213-6.351-10.552c-4.558,7.743-11.99,12.742-20.151,14.483c-7.179,1.531-14.918,0.556-21.783-3.396
		c-9.749-5.613-15.234-15.744-15.398-26.226c-0.083-5.114,1.083-10.312,3.674-15.108h-0.002c-0.129,0.142-0.283,0.262-0.446,0.373
		c-0.023,0.019-0.042,0.036-0.067,0.054c-0.16,0.105-0.337,0.191-0.519,0.273c-0.042,0.019-0.08,0.041-0.122,0.057
		c-0.183,0.074-0.381,0.134-0.587,0.188c-0.057,0.018-0.113,0.036-0.175,0.051c-0.202,0.048-0.419,0.08-0.641,0.11
		c-0.077,0.011-0.151,0.023-0.231,0.031c-0.219,0.022-0.449,0.037-0.686,0.043c-0.096,0.004-0.193,0.005-0.29,0.008
		c-0.233,0.001-0.476-0.007-0.724-0.022c-0.116-0.004-0.231-0.014-0.352-0.021c-0.243-0.019-0.492-0.044-0.749-0.075
		c-0.134-0.018-0.272-0.037-0.412-0.059c-0.253-0.037-0.508-0.079-0.769-0.128c-0.158-0.029-0.315-0.061-0.475-0.096
		c-0.256-0.054-0.514-0.111-0.779-0.175c-0.177-0.044-0.358-0.09-0.537-0.138c-0.257-0.07-0.52-0.139-0.785-0.218
		c-0.196-0.059-0.392-0.121-0.59-0.186c-0.261-0.082-0.521-0.164-0.784-0.255c-0.216-0.075-0.437-0.155-0.654-0.236
		c-0.258-0.093-0.511-0.186-0.773-0.287c-0.235-0.093-0.473-0.193-0.711-0.293c-0.252-0.104-0.5-0.202-0.756-0.313
		c-0.262-0.113-0.525-0.239-0.789-0.362c-0.237-0.104-0.47-0.209-0.705-0.324c-0.309-0.147-0.619-0.309-0.93-0.468
		c-0.196-0.101-0.393-0.193-0.591-0.299c-0.51-0.269-1.023-0.551-1.533-0.845c-0.931-0.536-1.818-1.094-2.668-1.66
		c-0.074-0.05-0.151-0.098-0.225-0.148c-0.802-0.541-1.553-1.093-2.271-1.65c-0.1-0.078-0.208-0.16-0.307-0.236
		c-0.688-0.545-1.322-1.09-1.919-1.64c-0.101-0.09-0.205-0.182-0.302-0.275c-0.575-0.54-1.104-1.077-1.583-1.608
		c-0.083-0.093-0.163-0.187-0.245-0.276c-0.463-0.532-0.878-1.057-1.234-1.566c-0.058-0.082-0.108-0.164-0.166-0.246
		c-0.344-0.515-0.637-1.018-0.862-1.5c-0.028-0.062-0.05-0.119-0.075-0.179c-0.215-0.495-0.375-0.97-0.448-1.415
		c-0.005-0.031-0.004-0.059-0.01-0.09c-0.065-0.451-0.059-0.872,0.033-1.259c0.002-0.012-0.004-0.023,0-0.033
		c-3.561,6.396-5.922,13.141-7.193,19.972c-0.545,2.92-0.887,5.856-1.031,8.79c-0.581,11.903,2.089,23.743,7.652,34.216
		c3.791,7.137,8.925,13.631,15.291,19.069c6.464-2.312,12.196-6.786,16.007-13.111c0.004-0.005,0.004-0.012,0.008-0.017
		c1.825-3.097,10.1-1.6,18.481,3.342c0.572,0.337,1.129,0.684,1.67,1.033"/>
	<path fill="none" stroke="#FAC529" stroke-width="5.9084" stroke-linecap="round" stroke-linejoin="round" d="M198.176,614.106
		c-0.098,0.165-0.223,0.315-0.359,0.456c-6.569,11.875-4.486,26.303,4.331,35.832c2.902-3.67,6.667-6.748,11.206-8.847
		c2.126-0.984,4.31-1.677,6.508-2.146c-5.563-10.473-8.233-22.313-7.652-34.216c-4.583,1.008-9.129,2.504-13.563,4.555
		c-0.285,0.13-0.554,0.276-0.834,0.412C198.595,611.718,198.772,613.095,198.176,614.106z"/>
	<path fill="none" stroke="#FAC529" stroke-width="5.9084" stroke-linecap="round" stroke-linejoin="round" d="M220.433,576.425
		c-0.004,0.01,0.002,0.021,0,0.033c0.056-0.237,0.138-0.464,0.259-0.673c1.791-3.117,10.078-1.705,18.51,3.148
		c8.436,4.855,13.821,11.314,12.027,14.431c-0.097,0.166-0.222,0.314-0.354,0.455h0.002c-2.591,4.797-3.756,9.994-3.674,15.108
		c1.731,0.127,3.479,0.188,5.243,0.176c1.325-0.007,2.656-0.041,3.995-0.13c3.217-0.212,6.362-0.659,9.426-1.311
		c28.751-6.106,50.089-30.776,51.947-60.187c0.153-2.416,0.188-4.862,0.07-7.335c-0.438,1.352-1.95,2.645-4.221,3.732
		c-0.113,0.055-0.222,0.11-0.336,0.162c-0.203,0.093-0.418,0.181-0.632,0.272c-0.181,0.073-0.359,0.148-0.551,0.227
		c-0.188,0.07-0.385,0.142-0.583,0.213c-0.229,0.082-0.464,0.165-0.702,0.244c-0.186,0.061-0.372,0.121-0.56,0.177
		c-0.271,0.085-0.543,0.165-0.825,0.245c-0.18,0.048-0.362,0.097-0.545,0.146c-0.306,0.08-0.614,0.155-0.93,0.228
		c-0.179,0.043-0.355,0.085-0.54,0.126c-0.332,0.073-0.675,0.141-1.02,0.204c-0.175,0.036-0.348,0.067-0.526,0.102
		c-0.372,0.065-0.748,0.126-1.129,0.182c-0.162,0.025-0.323,0.052-0.489,0.075c-0.422,0.06-0.853,0.11-1.285,0.158
		c-0.132,0.015-0.264,0.031-0.396,0.046c-0.573,0.06-1.153,0.11-1.741,0.147c-7.376,0.487-13.794-0.773-16.558-2.979
		c-0.396-0.318-0.715-0.65-0.954-1.002c-0.012-0.018-0.031-0.035-0.043-0.055c-0.103-0.159-0.177-0.326-0.246-0.494
		c-0.019-0.044-0.049-0.087-0.065-0.131c-0.051-0.144-0.07-0.29-0.092-0.438c-0.012-0.072-0.041-0.142-0.046-0.215
		c0.95,16.864-11.846,31.378-28.737,32.489c-16.7,1.103-31.138-11.321-32.683-27.886c-0.002,0.003-0.002,0.009-0.004,0.011
		c-0.028,0.177-0.086,0.352-0.153,0.524c-0.016,0.039-0.023,0.077-0.039,0.113c-0.071,0.164-0.165,0.328-0.268,0.49
		c-0.03,0.047-0.054,0.095-0.084,0.142c-0.106,0.156-0.231,0.306-0.364,0.459c-0.047,0.055-0.089,0.108-0.142,0.163
		c-0.134,0.143-0.287,0.282-0.446,0.424c-0.067,0.061-0.132,0.119-0.204,0.18c-0.16,0.132-0.333,0.261-0.515,0.39
		c-0.091,0.067-0.181,0.131-0.275,0.195c-0.181,0.122-0.371,0.237-0.568,0.356c-0.119,0.07-0.236,0.138-0.359,0.208
		c-0.196,0.107-0.4,0.216-0.609,0.32c-0.143,0.072-0.291,0.145-0.441,0.214c-0.209,0.099-0.423,0.195-0.645,0.29
		c-0.169,0.074-0.346,0.144-0.525,0.215c-0.217,0.087-0.439,0.175-0.667,0.259c-0.2,0.072-0.406,0.141-0.613,0.212
		c-0.223,0.077-0.448,0.15-0.681,0.223c-0.232,0.073-0.469,0.142-0.708,0.211c-0.227,0.063-0.45,0.127-0.683,0.191
		c-0.26,0.067-0.527,0.131-0.792,0.194c-0.229,0.056-0.456,0.111-0.692,0.163c-0.285,0.063-0.581,0.119-0.874,0.178
		c-0.229,0.044-0.452,0.093-0.684,0.134c-0.326,0.058-0.66,0.109-0.995,0.16c-0.213,0.033-0.421,0.069-0.636,0.101
		c-0.388,0.056-0.783,0.099-1.181,0.146c-0.171,0.02-0.34,0.042-0.516,0.061c-0.577,0.059-1.16,0.11-1.754,0.148
		c-0.59,0.041-1.175,0.066-1.752,0.085c-0.16,0.004-0.316,0.002-0.473,0.004c-0.412,0.01-0.825,0.019-1.231,0.014
		c-0.198-0.002-0.39-0.01-0.584-0.014c-0.357-0.008-0.715-0.015-1.063-0.03c-0.208-0.012-0.412-0.025-0.62-0.036
		c-0.325-0.022-0.649-0.041-0.968-0.067c-0.208-0.018-0.41-0.038-0.614-0.063c-0.305-0.027-0.609-0.062-0.906-0.098
		c-0.204-0.026-0.399-0.056-0.6-0.085c-0.283-0.041-0.564-0.082-0.836-0.13c-0.199-0.035-0.391-0.069-0.585-0.108
		c-0.26-0.05-0.515-0.102-0.766-0.158c-0.19-0.042-0.373-0.084-0.556-0.13c-0.24-0.06-0.475-0.122-0.704-0.187
		c-0.177-0.051-0.35-0.099-0.521-0.151c-0.217-0.068-0.427-0.14-0.634-0.212c-0.162-0.056-0.324-0.112-0.479-0.175
		c-0.197-0.072-0.381-0.152-0.565-0.231c-0.146-0.063-0.294-0.127-0.434-0.193c-0.175-0.083-0.332-0.17-0.494-0.258
		c-0.128-0.069-0.261-0.138-0.383-0.211c-0.151-0.092-0.287-0.188-0.424-0.284c-0.106-0.074-0.219-0.147-0.316-0.222
		c-0.132-0.102-0.244-0.211-0.361-0.318c-0.079-0.073-0.169-0.148-0.243-0.224c-0.123-0.131-0.223-0.27-0.321-0.404
		c-0.042-0.057-0.096-0.111-0.134-0.169c-0.121-0.193-0.223-0.395-0.294-0.596c1.595,19.819,11.844,36.922,26.769,47.855
		C214.511,589.565,216.872,582.821,220.433,576.425z"/>
	<path fill="none" stroke="#FAC529" stroke-width="5.9084" stroke-linecap="round" stroke-linejoin="round" d="M327.562,630.182
		c-0.531-0.394-1.053-0.792-1.626-1.179c-0.912-0.618-1.873-1.224-2.88-1.802c-2.125-1.225-4.242-2.228-6.247-2.996
		c-0.002,0-0.006,0-0.008-0.003c-0.61-0.235-1.204-0.437-1.789-0.627c-5.135-1.657-9.269-1.616-10.471,0.476
		c-0.002,0.004-0.004,0.012-0.006,0.015v-0.002c-1.323,2.338,1.369,6.551,6.351,10.554c0.022,0.017,0.045,0.034,0.066,0.052
		c0.51,0.408,1.08,0.806,1.636,1.208"/>
	<path fill="none" stroke="#FAC529" stroke-width="5.9084" stroke-linecap="round" stroke-linejoin="round" d="M318.97,621.3
		c-0.968,1.005-1.699,1.982-2.169,2.902c0.002,0.003,0.006,0.003,0.008,0.003C317.274,623.285,318.005,622.306,318.97,621.3z"/>
	<path fill="none" stroke="#FAC529" stroke-width="5.9084" stroke-linecap="round" stroke-linejoin="round" d="M347.693,616.355
		c-1.631-0.815-3.246-1.69-4.828-2.658c0.004,0.001,0.011,0,0.014,0c-0.229-0.065-0.446-0.158-0.646-0.283
		c-0.806-0.507-1.264-1.466-1.425-2.74c-0.127,0.016-0.251,0.026-0.381,0.045c-0.02,0.001-0.041,0.007-0.061,0.008
		c-0.883,0.127-1.81,0.306-2.776,0.543c-0.061,0.014-0.121,0.033-0.181,0.048c-0.437,0.108-0.879,0.224-1.329,0.353
		c-0.09,0.027-0.185,0.059-0.277,0.087c-1.967,0.585-4.045,1.363-6.147,2.343c-0.528,0.247-1.044,0.5-1.55,0.76
		c-0.173,0.086-0.338,0.179-0.506,0.268c-0.328,0.172-0.652,0.344-0.971,0.519c-0.203,0.114-0.402,0.23-0.601,0.347
		c-0.269,0.155-0.538,0.312-0.798,0.467c-0.215,0.131-0.42,0.262-0.628,0.392c-0.231,0.149-0.462,0.294-0.688,0.441
		c-0.218,0.143-0.426,0.286-0.634,0.431c-0.197,0.134-0.393,0.272-0.588,0.41c-0.215,0.155-0.427,0.312-0.634,0.467
		c-0.164,0.127-0.325,0.25-0.487,0.374c-0.216,0.172-0.429,0.342-0.635,0.511c-0.127,0.106-0.248,0.211-0.371,0.319
		c-0.22,0.188-0.438,0.377-0.642,0.565c-0.084,0.075-0.16,0.152-0.241,0.228c-0.231,0.216-0.455,0.435-0.666,0.648
		c-0.016,0.021-0.032,0.037-0.048,0.055c-0.965,1.006-1.695,1.985-2.161,2.905c2.005,0.769,4.122,1.771,6.247,2.996
		c1.007,0.578,1.968,1.184,2.88,1.802c2.803-0.561,5.977-1.603,9.211-3.11"/>
	<path fill="none" stroke="#FAC529" stroke-width="5.9084" stroke-linecap="round" stroke-linejoin="round" d="M301.495,618.519
		c-0.054-0.225-0.148-0.437-0.263-0.64c0.118,0.207,0.211,0.42,0.264,0.648C301.496,618.527,301.496,618.523,301.495,618.519z"/>
	<path fill="none" stroke="#FAC529" stroke-width="5.9084" stroke-linecap="round" stroke-linejoin="round" d="M408.742,520.146
		c0.311-0.492,0.607-0.982,0.894-1.475c0.101-0.174,0.192-0.345,0.29-0.517c0.177-0.314,0.356-0.63,0.523-0.946
		c0.11-0.205,0.214-0.411,0.319-0.617c0.142-0.277,0.286-0.554,0.419-0.829c0.107-0.219,0.21-0.439,0.313-0.659
		c0.116-0.251,0.232-0.502,0.341-0.753c0.104-0.231,0.203-0.463,0.297-0.691c0.097-0.227,0.187-0.454,0.275-0.678
		c0.098-0.243,0.188-0.486,0.276-0.726c0.073-0.199,0.142-0.395,0.211-0.59c0.089-0.258,0.175-0.511,0.254-0.763
		c0.053-0.162,0.1-0.321,0.147-0.482c0.08-0.273,0.159-0.545,0.227-0.809c0.032-0.115,0.058-0.229,0.087-0.345
		c0.072-0.3,0.143-0.597,0.199-0.884c0.009-0.035,0.014-0.067,0.021-0.101c0.362-1.878,0.38-3.478,0.031-4.669
		c-0.009-0.031-0.009-0.072-0.02-0.103c-0.124-0.402-0.294-0.752-0.509-1.049c-0.198-0.272-0.422-0.515-0.696-0.688
		c-3.039-1.916-9.708,3.202-14.9,11.433c-5.191,8.231-6.935,16.457-3.896,18.372c0.004,0.004,0.013,0.006,0.019,0.011
		c-0.002-0.002-0.004-0.005-0.006-0.005C396.902,533.478,403.561,528.365,408.742,520.146z"/>
	<path fill="none" stroke="#FAC529" stroke-width="5.9084" stroke-linecap="round" stroke-linejoin="round" d="M285.803,628.851
		c9.482-2.193,16.508-6.81,15.701-10.309c-0.001-0.008-0.008-0.015-0.009-0.023c0.001,0.005,0.001,0.009,0.001,0.009
		c-0.053-0.229-0.146-0.441-0.264-0.648c-0.009-0.018-0.013-0.034-0.02-0.052c-0.122-0.202-0.279-0.393-0.457-0.578
		c-0.013-0.015-0.023-0.032-0.038-0.045c-0.163-0.162-0.36-0.312-0.566-0.453c-0.044-0.033-0.078-0.068-0.124-0.098
		c-0.184-0.122-0.402-0.228-0.616-0.334c-0.086-0.045-0.161-0.097-0.257-0.139c-0.228-0.104-0.487-0.192-0.745-0.283
		c-0.101-0.035-0.189-0.077-0.296-0.111c-0.221-0.067-0.47-0.126-0.708-0.186c-0.165-0.041-0.314-0.092-0.488-0.126
		c-0.271-0.058-0.565-0.101-0.854-0.146c-0.164-0.026-0.316-0.063-0.485-0.083c-0.469-0.065-0.959-0.113-1.469-0.147
		c-0.041-0.003-0.085-0.003-0.126-0.007c-0.414-0.024-0.835-0.045-1.274-0.052c-0.186-0.004-0.383,0.004-0.572,0.004
		c-0.302,0-0.6-0.004-0.913,0.006c-0.325,0.011-0.662,0.033-0.994,0.052c-0.19,0.011-0.373,0.017-0.566,0.03
		c-0.317,0.022-0.648,0.057-0.975,0.091c-0.217,0.021-0.43,0.036-0.652,0.06c-0.487,0.056-0.983,0.124-1.481,0.199
		c-0.065,0.009-0.128,0.015-0.195,0.024c-0.52,0.08-1.045,0.173-1.575,0.273c-0.052,0.009-0.1,0.016-0.152,0.026
		c-0.581,0.112-1.169,0.235-1.762,0.373c-0.565,0.131-1.124,0.271-1.671,0.42c-0.192,0.052-0.378,0.108-0.569,0.161
		c-0.35,0.1-0.699,0.197-1.042,0.305c-0.222,0.068-0.436,0.141-0.656,0.213c-0.297,0.096-0.592,0.194-0.883,0.293
		c-0.233,0.083-0.458,0.169-0.688,0.251c-0.259,0.097-0.518,0.189-0.769,0.29c-0.24,0.096-0.473,0.191-0.704,0.287
		c-0.225,0.095-0.449,0.188-0.667,0.285c-0.24,0.105-0.477,0.213-0.709,0.323c-0.192,0.088-0.377,0.179-0.562,0.267
		c-0.245,0.123-0.485,0.242-0.72,0.366c-0.151,0.079-0.295,0.158-0.44,0.238c-0.251,0.139-0.5,0.274-0.736,0.415
		c-0.102,0.062-0.195,0.122-0.295,0.182c-0.266,0.163-0.525,0.324-0.77,0.489c-0.029,0.021-0.052,0.036-0.082,0.056
		c-0.015,0.013-0.031,0.024-0.047,0.035c2.912,2.675,5.608,5.623,8.033,8.85C281.053,629.753,283.389,629.409,285.803,628.851z"/>
	<path fill="none" stroke="#FAC529" stroke-width="5.9084" stroke-linecap="round" stroke-linejoin="round" d="M351.347,588.283
		c-0.84-0.707-1.719-1.365-2.631-1.979c-1.383,2.847-2.308,5.899-2.77,9.04c0.062-0.1,0.117-0.2,0.18-0.302
		C347.774,592.434,349.569,590.142,351.347,588.283z"/>
	<path fill="none" stroke="#FAC529" stroke-width="5.9084" stroke-linecap="round" stroke-linejoin="round" d="M342.232,613.414
		c0.2,0.125,0.417,0.218,0.646,0.283c0.389,0.111,0.823,0.135,1.287,0.085c0.024-0.003,0.046,0,0.071-0.004
		c0.454-0.056,0.94-0.198,1.445-0.396c0.056-0.023,0.11-0.038,0.168-0.062c0.495-0.206,1.016-0.483,1.548-0.808
		c0.079-0.051,0.156-0.095,0.236-0.146c0.137-0.087,0.278-0.21,0.419-0.302c0,0,0,0,0-0.004c0.031-0.02,0.063-0.045,0.095-0.065
		c0.37-0.256,0.735-0.504,1.113-0.81c0.092-0.072,0.185-0.149,0.274-0.222c0.555-0.461,1.118-0.971,1.684-1.526
		c0.093-0.091,0.186-0.188,0.278-0.279c0.573-0.579,1.149-1.198,1.725-1.865c0.077-0.092,0.155-0.189,0.234-0.279
		c0.591-0.699,1.177-1.437,1.753-2.219c0.049-0.068,0.1-0.14,0.146-0.207c0.605-0.831,1.201-1.694,1.774-2.606
		c0.316-0.501,0.618-1.002,0.908-1.502c0.103-0.179,0.197-0.354,0.298-0.532c0.18-0.319,0.361-0.639,0.53-0.953
		c0.113-0.216,0.219-0.428,0.326-0.64c0.011-0.02,0.02-0.04,0.03-0.061c0.131-0.261,0.268-0.518,0.395-0.776
		c0.107-0.227,0.209-0.454,0.314-0.676c0.118-0.256,0.237-0.513,0.347-0.765c0.104-0.236,0.2-0.474,0.297-0.708
		c0.098-0.231,0.195-0.467,0.286-0.7c0.093-0.242,0.179-0.481,0.268-0.721c0.076-0.211,0.153-0.426,0.227-0.632
		c0.084-0.251,0.159-0.498,0.235-0.744c0.06-0.186,0.119-0.375,0.171-0.559c0.072-0.252,0.138-0.499,0.199-0.745
		c0.043-0.169,0.085-0.336,0.122-0.502c0.056-0.249,0.107-0.49,0.152-0.73c0.029-0.149,0.055-0.296,0.081-0.442
		c0.038-0.244,0.072-0.483,0.101-0.718c0.016-0.128,0.029-0.253,0.041-0.378c0.021-0.237,0.038-0.472,0.048-0.695
		c0.004-0.107,0.004-0.213,0.006-0.315c0-0.229-0.005-0.452-0.016-0.665c-0.008-0.089-0.018-0.173-0.025-0.258
		c-0.02-0.215-0.045-0.425-0.082-0.62c-0.013-0.07-0.034-0.136-0.047-0.2c-0.046-0.201-0.095-0.395-0.159-0.572
		c-0.018-0.049-0.041-0.094-0.061-0.142c-0.072-0.184-0.151-0.358-0.244-0.514c-0.017-0.03-0.038-0.054-0.058-0.083
		c-0.104-0.164-0.217-0.317-0.346-0.45c-0.137-0.141-0.281-0.271-0.446-0.373c-2.076-1.311-5.845,0.666-9.683,4.673
		c-1.777,1.858-3.572,4.15-5.221,6.76c-0.063,0.102-0.118,0.202-0.18,0.302c-3.693,5.948-5.571,11.849-5.139,15.329
		C340.969,611.948,341.427,612.907,342.232,613.414z"/>
	<path fill="none" stroke="#FAC529" stroke-width="5.9084" stroke-linecap="round" stroke-linejoin="round" d="M413.338,502.463
		c0.215,0.297,0.385,0.646,0.509,1.049C413.723,503.109,413.553,502.76,413.338,502.463z"/>
	<path fill="none" stroke="#FAC529" stroke-width="5.9084" stroke-linecap="round" stroke-linejoin="round" d="M361.029,583.61
		c0.165,0.103,0.31,0.232,0.446,0.373c-0.002-0.002-0.004-0.004-0.004-0.004c9.521,5.648,20.902,5.57,30.092,0.733
		c-2.508-5.559-5.734-10.649-9.547-15.185c-6.087-1.137-12.567-0.485-18.611,2.331c-6.675,3.109-11.706,8.304-14.689,14.445
		c0.912,0.613,1.791,1.271,2.631,1.979C355.185,584.276,358.953,582.3,361.029,583.61z"/>
	<path fill="none" stroke="#FAC529" stroke-width="5.9084" stroke-linecap="round" stroke-linejoin="round" d="M413.847,503.512
		c0.011,0.03,0.011,0.071,0.02,0.103C413.857,503.583,413.857,503.542,413.847,503.512z"/>
	<path fill="none" stroke="#FAC529" stroke-width="5.9084" stroke-linecap="round" stroke-linejoin="round" d="M270.86,621.054
		c-1.58-1.452-3.22-2.82-4.924-4.101c-4.188-3.155-8.719-5.783-13.49-7.85c-1.764,0.012-3.512-0.049-5.243-0.176
		c0.164,10.481,5.649,20.612,15.398,26.226c6.865,3.951,14.604,4.927,21.783,3.396c-1.628-3.061-3.463-5.948-5.491-8.646
		C276.468,626.677,273.772,623.729,270.86,621.054z"/>
	<path fill="none" stroke="#FAC529" stroke-width="5.9084" stroke-linecap="round" stroke-linejoin="round" d="M304.535,624.063
		v0.002c-1.325,2.339,1.369,6.549,6.351,10.552C305.904,630.614,303.212,626.401,304.535,624.063z"/>
	<path fill="none" stroke="#FAC529" stroke-width="5.9084" stroke-linecap="round" stroke-linejoin="round" d="M413.866,503.614
		c0.349,1.191,0.331,2.791-0.031,4.669C414.201,506.403,414.215,504.806,413.866,503.614z"/>
	<g>
		<path fill="#FAC529" d="M255.527,654.295c0.947,0.9,1.983,1.802,3.157,2.688c-1.173-0.887-2.209-1.788-3.158-2.688
			L255.527,654.295"/>
	</g>
	<g>
		<g>
			<path fill="#FAC529" d="M442.574,536.226c9.602,1.363,15.78,4.451,17.589,9.401c7.291,19.964-58.941,62.496-147.937,94.998
				c-58.121,21.227-111.582,32.926-143.706,32.926c-17.065,0-28.105-3.3-30.635-10.225c-2.62-7.174,4.264-17.264,18.273-28.752
				c0.292,3.862,0.9,7.69,1.827,11.437c-8.174,7.428-10.676,12.171-10.797,13.918c1.362,1.403,7.379,3.765,21.371,3.765
				c7.211,0,16.54-0.627,28.441-2.336c31.622-4.541,71.341-15.189,111.849-29.981c40.501-14.793,77.736-32.251,104.845-49.158
				c29.998-18.71,36.959-30.236,37.168-33.194c-0.668-0.686-2.469-1.596-5.741-2.352
				C444.555,543.126,443.682,539.64,442.574,536.226 M209.567,601.288c-0.054,0.521-0.088,1.038-0.129,1.554
				c-2.25,0.569-4.493,1.217-6.71,2.024C204.965,603.674,207.251,602.482,209.567,601.288"/>
		</g>
	</g>
	<path fill="none" stroke="#FAC529" stroke-width="5.9084" stroke-linecap="round" stroke-linejoin="round" d="M187.22,549.71
		c0.073,0.075,0.164,0.15,0.243,0.224c0.117,0.107,0.229,0.217,0.361,0.318c0.097,0.074,0.21,0.147,0.316,0.222
		c0.138,0.097,0.273,0.192,0.424,0.284c0.122,0.073,0.254,0.142,0.383,0.211c0.162,0.088,0.319,0.175,0.494,0.258
		c0.139,0.066,0.287,0.13,0.434,0.193c0.184,0.079,0.369,0.159,0.565,0.231c0.155,0.063,0.317,0.119,0.479,0.175
		c0.207,0.072,0.417,0.144,0.634,0.212c0.171,0.053,0.345,0.101,0.521,0.151c0.229,0.064,0.463,0.127,0.704,0.187
		c0.183,0.046,0.365,0.088,0.556,0.13c0.25,0.057,0.506,0.108,0.766,0.158c0.194,0.039,0.386,0.073,0.585,0.108
		c0.272,0.048,0.554,0.089,0.836,0.13c0.201,0.029,0.396,0.059,0.6,0.085c0.296,0.036,0.601,0.07,0.906,0.098
		c0.204,0.024,0.406,0.045,0.614,0.063c0.319,0.026,0.644,0.045,0.968,0.067c0.208,0.011,0.413,0.024,0.62,0.036
		c0.348,0.016,0.706,0.022,1.063,0.03c0.195,0.004,0.387,0.012,0.584,0.014c0.406,0.005,0.82-0.004,1.231-0.014
		c0.157-0.002,0.313,0,0.473-0.004c0.577-0.019,1.162-0.044,1.752-0.085c0.594-0.038,1.177-0.09,1.754-0.148
		c0.175-0.019,0.345-0.041,0.516-0.061c0.398-0.047,0.793-0.09,1.181-0.146c0.215-0.031,0.423-0.067,0.636-0.101
		c0.335-0.051,0.669-0.103,0.995-0.16c0.232-0.041,0.456-0.09,0.684-0.134c0.293-0.059,0.589-0.114,0.874-0.178
		c0.237-0.052,0.463-0.107,0.692-0.163c0.265-0.063,0.533-0.127,0.792-0.194c0.232-0.064,0.456-0.128,0.683-0.191
		c0.239-0.069,0.475-0.138,0.708-0.211c0.233-0.072,0.458-0.146,0.681-0.223c0.207-0.071,0.413-0.14,0.613-0.212
		c0.229-0.084,0.45-0.172,0.667-0.259c0.179-0.071,0.355-0.141,0.525-0.215c0.222-0.095,0.436-0.191,0.645-0.29
		c0.15-0.069,0.298-0.142,0.441-0.214c0.209-0.104,0.413-0.213,0.609-0.32c0.123-0.07,0.24-0.138,0.359-0.208
		c0.197-0.119,0.387-0.234,0.568-0.356c0.094-0.064,0.185-0.128,0.275-0.195c0.182-0.129,0.355-0.258,0.515-0.39
		c0.071-0.061,0.137-0.119,0.204-0.18c0.16-0.142,0.312-0.281,0.446-0.424c0.053-0.055,0.095-0.108,0.142-0.163
		c0.133-0.153,0.258-0.303,0.364-0.459c0.03-0.047,0.054-0.095,0.084-0.142c0.103-0.162,0.197-0.326,0.268-0.49
		c0.016-0.036,0.023-0.074,0.039-0.113c0.067-0.173,0.125-0.348,0.153-0.524c0.035-0.194,0.054-0.39,0.042-0.584
		c-0.237-3.585-8.297-5.969-18.012-5.332c-9.707,0.639-17.389,4.063-17.15,7.65c0.03,0.443,0.181,0.868,0.437,1.273
		c0.039,0.058,0.093,0.112,0.134,0.169C186.997,549.44,187.098,549.579,187.22,549.71z"/>
</g>
<g id="flyrin_mac">
	<path fill="none" stroke="#FAC529" stroke-width="5.9084" stroke-linecap="round" stroke-linejoin="round" d="M282.494,406.524
		c-29.097,20.88-69.674,14.698-91.174-14.133c-21.555-28.901-15.831-69.686,12.661-91.584c-2.065,2.698,0.369,10.226,5.809,17.521
		c5.51,7.386,12.111,11.875,15.242,10.517c-13.053,10.306-15.629,29.18-5.624,42.593c10.119,13.568,29.259,16.415,42.894,6.451
		c-2.859,2.163-0.477,10.21,5.332,18C272.928,402.989,279.232,407.401,282.494,406.524z M220.219,310.554
		c-5.818-7.801-12.869-12.385-15.748-10.236c-2.879,2.146-0.498,10.211,5.318,18.01c5.82,7.803,12.869,12.385,15.747,10.236
		C228.416,326.417,226.035,318.353,220.219,310.554z M278.059,388.11c-5.818-7.798-12.867-12.383-15.749-10.233
		c-2.878,2.147-0.496,10.21,5.323,18.011c5.816,7.801,12.867,12.382,15.746,10.237C286.257,403.979,283.877,395.912,278.059,388.11z
		 M380.85,232.561c-5.81,35.341-38.872,59.661-74.462,54.479c-35.678-5.197-60.47-38.082-55.808-73.713
		c0.446,3.368,7.492,6.97,16.496,8.282c9.12,1.325,16.961-0.167,18.214-3.341c-1.942,16.516,9.583,31.684,26.143,34.095
		c16.748,2.438,32.296-9.084,34.891-25.771c-0.492,3.552,6.884,7.557,16.496,8.957C371.585,236.826,379.165,235.49,380.85,232.561z
		 M268.955,208.737c-9.628-1.4-17.857,0.342-18.373,3.898c-0.519,3.552,6.866,7.573,16.494,8.975
		c9.632,1.402,17.856-0.342,18.373-3.896C285.967,214.158,278.583,210.139,268.955,208.737z M364.695,222.678
		c-9.63-1.402-17.854,0.343-18.374,3.899c-0.517,3.555,6.871,7.57,16.498,8.972c9.63,1.404,17.854-0.342,18.371-3.896
		C381.708,228.101,374.325,224.081,364.695,222.678z M263.826,136.409c-17.827-31.061-7.566-70.804,23.292-89.275
		c30.939-18.515,70.933-8.69,89.833,21.874c-2.473-2.329-10.21-0.669-18.02,4.004c-7.905,4.734-13.039,10.846-12.007,14.097
		c-8.929-14.028-27.445-18.503-41.805-9.909c-14.522,8.693-19.294,27.448-10.76,42.021c-1.863-3.064-10.111-1.508-18.446,3.481
		C268.312,127.25,263.282,133.075,263.826,136.409z M365.608,84.174c8.35-4.998,13.625-11.547,11.777-14.63
		c-1.84-3.081-10.105-1.529-18.455,3.467c-8.352,4.999-13.623,11.548-11.778,14.627C348.997,90.722,357.262,89.171,365.608,84.174z
		 M282.593,133.862c8.349-4.999,13.623-11.546,11.778-14.631c-1.847-3.082-10.109-1.526-18.458,3.471
		c-8.351,4.996-13.622,11.545-11.776,14.628C265.978,140.409,274.242,138.86,282.593,133.862z M259.345,490.797
		c5.812-35.342,38.875-59.661,74.464-54.48c35.679,5.194,60.471,38.08,55.807,73.714c-0.446-3.37-7.492-6.971-16.497-8.284
		c-9.118-1.324-16.96,0.167-18.214,3.343c1.944-16.518-9.58-31.685-26.14-34.095c-16.748-2.438-32.299,9.086-34.894,25.77
		c0.493-3.55-6.881-7.556-16.496-8.958C268.609,486.531,261.032,487.869,259.345,490.797z M371.242,514.619
		c9.629,1.401,17.856-0.343,18.374-3.898c0.518-3.553-6.869-7.572-16.497-8.975c-9.632-1.402-17.856,0.342-18.371,3.896
		C354.229,509.197,361.614,513.217,371.242,514.619z M275.503,500.681c9.628,1.398,17.854-0.343,18.369-3.9
		c0.52-3.554-6.867-7.57-16.496-8.975c-9.628-1.401-17.854,0.345-18.374,3.898C258.486,495.257,265.873,499.276,275.503,500.681z"/>
</g>
<g id="Layer_7">
	<g>
		<g>
			<path fill="#FAC529" d="M266.767,112.799c-1.035-4.14-0.696-9.284,0.944-13.552c1.314-4.594,6.936-10.085,14.498-10.085
				c1.783,0-0.114-8.919,1.53-17.125c1.64-10.503,8.862-18.382,20.021-17.068c7.552,0.984,11.49,6.893,18.385,6.893
				c7.878,0,15.426-8.862,22.976-3.282c7.022,4.766,6.12,14.347,5.348,21.704c-0.164,1.59-0.175,8.843-1.923,9.673
				c-3.381,1.604-4.589-2.534-5.62-3.622c-2.248-2.375-6.559-6.222-9.406-7.765c-6.183-3.347-13.638-4.23-20.656-1.874
				c-13.527,4.541-18.958,14.57-17.964,29.479c0.317,4.767,2.011,10.009,0.09,14.771c-1.41,3.489-5.384,6.343-7.803,9.218
				c-2.777,3.298-5.36,6.664-7.131,10.625c-1.977,4.414,1.386,16.921-7.408,17.53c-5.16,0.357-6.808-7.146-7.618-10.456
				c-1.079-4.4-3.36-8.725-2.83-13.081c0.293-2.396,5.089-13.8,6.775-15.363C269.779,118.356,268.342,119.103,266.767,112.799z
				 M272.984,175.594c-4.169,0-7.551,3.381-7.551,7.552c0,4.171,3.382,7.552,7.551,7.552c4.173,0,7.554-3.381,7.554-7.552
				C280.538,178.975,277.157,175.594,272.984,175.594z M289.064,230.849c-4.091-3.952-5.678-9.277-8.28-8.802
				c-5.497,1.003-7.179,8.668-6.4,14.894c0.61,4.873,8.135,9.793,13.415,7.188C293.632,241.251,293.39,235.026,289.064,230.849z
				 M359.563,254.543c-7.878-4.431-13.688,3.232-16.525,7.96c-1.183,0.652-8.266-6.475-18.433-1.066
				c-6.151,3.273-7.726,7.278-8.988,10.522c-1.577-0.315-2.069-0.093-5.672-2.208c-6.604-3.878-18.3-3.022-20.299,5.472
				c-1.717,7.302,6.072,11.653,11.488,13.623c11.325,3.939,24.291,2.297,36.108-1.15c4.485-1.495,18.016-7.348,22.813-13.458
				C366.32,266.26,363.189,256.496,359.563,254.543z M323.13,301.483c-1.813,2.524-8.505,24.977,3.372,22.682
				c6.882-1.33,2.702-14.534-0.579-20.792C324.431,300.527,323.623,300.798,323.13,301.483z M256.684,380.689
				c-5.365-1.072-12.983,0.498-18.243-0.838c-4.795-1.219-7.631-4.706-12.41-5.246c-10.32-1.166-14.417,12.387-5.067,18.013
				c2.844,1.711,11.063,2.062,14.288,1.308c-10.086,4.412-1.262,12.607,4.728,8.194c3.439-2.535-4.621,14.052,7.877,18.909
				c5.674,2.207,12.923-1.891,13.868-0.315c3.052,4.58,5.767,13.791,12.422,13.06c7.193-0.79,5.892-12.663,6.175-17.784
				c0.313-5.675,6.933-6.62,5.671-10.718c-1.575-4.727-12.526-21.242-15.992-24.396C265.273,377.41,262.04,381.95,256.684,380.689z
				 M257.889,482.511c0.616,5.662,12.31,5.293,12.186-8.493c0.247,0.123,19.818,2.954,26.711-8.247
				c1.754-2.853,2.708-7.632,3.447-9.108c13.416,0.614,16.74-5.909,19.695-9.849c8.861-4.185,17.479-4.185,26.834-2.216
				c5.168,0.985,8.861-0.738,3.446-5.415c-8.618-7.139-16.248-6.894-26.589-6.894c-6.16,0-14.596,1.444-21.417,3.693
				c-8.443,2.782-17.831,8.12-23.142,13.293c-5.416,5.171-11.894,4.826-17.479,14.279
				C258.381,468.971,257.5,478.928,257.889,482.511z M320.503,559.157c-4.104,4.924,2.133,9.025,6.564,9.355
				c8.863,0.327,13.786-6.075,17.889-12.968c2.954-5.416,7.223-11.65,14.443-10.34c5.58,1.151,9.684,6.401,15.265,7.879
				c4.923,1.476,11.65,0.82,15.264-3.447c3.938-4.758,1.148-10.011-1.644-14.442c-2.462-3.61-6.893-4.103-10.995-4.431
				c-7.222-0.493-15.756,1.313-22.648,3.282c-6.401,1.806-11.161,4.925-17.07,8.371C331.006,546.52,320.503,559.157,320.503,559.157
				z M403.877,569.004c-1.784,4.265-2.954,5.745-7.057,8.371c-6.073,3.773-13.131,8.696-20.845,7.55
				c-3.281-0.33-9.354-3.611-12.637-1.479c-1.806,1.148-1.806,3.939-2.298,5.746c-0.655,3.116-6.695,13.787-3.611,16.083
				c6.402,4.759,13.13-3.611,13.13-3.119c2.135,2.463,4.596,5.746,12.309,4.433c9.554-1.629,19.532-6.072,22.978-16.25
				c1.149-3.281-0.163-9.518,2.3-12.145c1.969-2.134,6.234,0.166,8.861,0.329c9.849,0.329,5.581-10.341,3.118-15.919
				c-4.103-9.355-11.815-17.07-17.725-25.276C402.4,537.328,409.785,554.89,403.877,569.004z M199.707,618.731
				c0.658-3.283,2.299-5.58,1.314-9.027c-0.821-3.446-2.955-5.251-5.745-7.386c-5.251-4.103-11.49-8.368-18.218-10.175
				c-3.939-0.983-8.534-1.806-12.144,1.313c-1.806,1.806-3.033,5.71-4.104,8.043c-2.791,6.074-3.282,12.474,0.658,17.232
				c5.087,6.564,12.8,6.239,19.529,6.401c-5.908,12.311,16.575,21.832,17.725,10.998
				C198.722,636.131,198.558,623.49,199.707,618.731z M250.286,583.748c1.312,1.441,2.42,2.845,3.18,4.338
				c4.316-2.627,7.17-7.49,7.328-13.995c8.356,8.357,28.785,8.049,26.617-7.736c-0.309-3.095-3.094-8.977-6.809-9.903
				c-4.333-0.929-7.118,4.95-10.213,7.118c-7.43,5.26-21.047,8.048-29.713,4.643c-6.809-2.167-12.071-16.095-19.189-14.856
				c0,0-4.168,0.664-6.679,3.667c-1.508,1.803-2.939,4.689-1.059,8.094c1.802,3.262,11.143,2.786,13.929,0.31
				c0,1.787-1.044,3.784-1.587,5.817c4.255,0.333,9.338,2.141,14.583,5.129C244.566,578.613,247.859,581.172,250.286,583.748z
				 M247.286,621.774c-3.249,1.322-1.42,11.004,0.038,14.195c2.014,4.419,6.853,4.49,10.022,2.896
				c4.061-2.039,4.211-6.633,1.318-8.601C255.481,628.1,251.621,620.011,247.286,621.774z M206.644,604.007
				c-1.727,0-4.942,2.558-4.942,4.285s1.402,3.13,3.129,3.13c1.729,0,3.131-1.402,3.131-3.13S208.373,604.007,206.644,604.007z
				 M285.781,617.498c-6.88,1.492-11.997,4.8-11.434,7.393c0.562,2.591,6.59,3.48,13.47,1.988c6.874-1.49,11.992-4.798,11.431-7.388
				C298.683,616.897,292.655,616.007,285.781,617.498z M408.316,518.025c0.106,2.854,2.938,8.267,6.799,10.42
				c3.363,1.878,9.767-2.343,8.311-6.063c-1.041-2.658-1.957-2.888-5.505-4.389C414,516.333,408.209,515.171,408.316,518.025z
				 M321.814,624.809c-4.268-1.643-21.335-6.237-15.1,4.594c4.597,8.863,21.664,1.314,9.521-5.252 M402.234,528.959
				c2.297-2.298,15.101-24.618,7.551-24.618c-5.908-0.329-19.038,20.68-16.084,25.274L402.234,528.959z"/>
		</g>
	</g>
</g>
</svg>
