<?xml version="1.0" encoding="utf-8"?>
<!-- Generator: Adobe Illustrator 13.0.0, SVG Export Plug-In . SVG Version: 6.00 Build 14948)  -->
<!DOCTYPE svg PUBLIC "-//W3C//DTD SVG 1.1//EN" "http://www.w3.org/Graphics/SVG/1.1/DTD/svg11.dtd">
<svg version="1.1" id="Layer_7_copy_3" xmlns="http://www.w3.org/2000/svg" xmlns:xlink="http://www.w3.org/1999/xlink" x="0px"
	 y="0px" width="1044px" height="648px" viewBox="0 0 1044 648" enable-background="new 0 0 1044 648" xml:space="preserve">
<g opacity="0.75">
	<g>
		<g>
			<path fill="#1A1A1A" d="M570.361,544.987c-5.214-5.124-28.309-5.354-28.538-5.354c-0.435,0-0.791,0.007-1.063,0.021l-0.162,0.008
				c-4.746,0.234-9.656,0.477-9.861,4.43c-0.072,1.35,0.467,1.985,2.068,3.873c2.389,2.82,7.614,8.985,10.382,15.419
				c-8.01,3.385-17.749,4.972-30.351,4.972c-11.401,0-24.904-1.323-41.282-4.046c-57.117-9.497-96.408-31.193-138.005-54.163
				c-20.179-11.144-41.046-22.664-65.121-33.579c-9.178-4.161-17.482-7.817-25.175-11.083c19.499-7.533,37.475-17.347,53.526-29.231
				c22.079-16.348,40.685-36.765,55.301-60.681c11.353-18.578,17.928-36.427,19.544-53.052c1.446-14.887-1.05-28.861-7.421-41.536
				c-7.631-15.183-20.875-28.41-38.298-38.252c-14.342-8.102-30.939-13.509-45.539-14.836c-7.627-0.693-15.332-1.046-22.898-1.046
				c-27.257,0-54.217,4.524-80.131,13.445c-22.904,7.886-45.038,19.204-65.786,33.64c-34.199,23.795-64.111,55.877-82.065,88.022
				c-10.625,19.022-2.959,27.008-2.026,27.879l45.596,41.652c0.217,0.199,0.459,0.364,0.715,0.497
				c1.279,0.985,4.492,2.973,9.569,2.973c3.352,0,6.906-0.879,10.562-2.609c11.006-5.214,20.566-16.491,23.25-27.426
				c1.305-5.313,2.379-15.017-0.295-18.426c-0.801-1.02-1.916-1.583-3.14-1.583c-0.529,0-1.055,0.108-1.561,0.321
				c-1.831,0.771-6.693,2.817-14.931,5.612c-1.607,0.547-3.151,1.056-4.643,1.531c19.941-29.389,46.34-54.072,76.77-71.695
				c28.856-16.711,59.23-25.915,85.527-25.915c24.107,0,41.455,7.817,48.846,22.009c5.863,11.258,5.19,22.435-2.121,35.17
				c-7.612,13.268-22.538,28.072-45.626,45.259c-7.949,5.918-17.031,11.597-27.052,16.917c0.391-5.947,0.781-12.506,1.204-20.197
				c2.566-46.804,1.952-55.555,1.924-55.906c-0.17-2.137-1.808-3.63-3.987-3.63c-3.021,0-7.68,3.018-17.596,9.905
				c-0.936,0.649-1.874,1.302-2.803,1.942c-2.671,1.843-5.471,3.788-8.316,5.762c-5.8,4.024-11.795,8.187-17.202,11.846
				c-16.871,10.835-18.054,15.393-19.254,28.163c-0.151,1.599-0.32,3.409-0.552,5.372c-0.259,2.208-0.47,4.596-0.711,7.359
				c-0.262,2.988-0.56,6.375-0.979,10.109l-1.759,15.641l-1.256,11.189c-7.262,2.01-14.485,3.811-21.497,5.356
				c-2.168,0.478-4.106,0.795-5.663,1.052c-3.965,0.651-6.583,1.08-7.469,3.654c-0.828,2.407,1.008,4.394,1.611,5.049
				c2.399,2.599,9.779,10.496,9.853,10.575c0.021,0.023,0.042,0.046,0.064,0.069l10.595,10.67c0.294,0.332,1.445,1.618,2.427,2.529
				c1.675,1.556,3.617,1.983,5.454,2.095c-4.94,41.421-16.126,90.562-22.458,116.569c-0.891,3.658-1.865,6.95-2.646,9.598
				c-1.833,6.205-2.593,8.773-1.073,10.808c0.697,0.931,1.775,1.466,2.963,1.466c0.354,0,0.72-0.048,1.087-0.142
				c1.957-0.502,5.648-1.565,15.799-4.55c8.922-2.622,21.445-6.382,30.436-9.405c26.288-8.831,27.428-11.283,31.613-35.051
				c0.481-2.733,1.027-5.833,1.675-9.267c2.555-13.522,7.191-39.333,9.544-60.266l0.18-1.6l0.667-5.938
				c13.236,6.52,25.874,14.06,37.619,22.447c31.912,22.794,69.736,48.92,108.313,69.862c43.804,23.781,79.714,36.083,109.78,37.607
				c1.466,0.074,2.967,0.112,4.463,0.112c20.233,0,38.266-6.793,47.216-10.841c12.639-5.718,22.631-12.799,24.866-17.618
				c4.544-9.805,11.506-26.736,15.849-38.545c3.033-8.246,2.793-10.455,2.256-11.761
				C570.971,545.729,570.697,545.31,570.361,544.987z M1019.974,188.404c-0.698-0.884-17.458-21.888-48.304-43.185
				c-18.11-12.506-37.316-22.472-57.082-29.623c-24.734-8.947-50.413-13.483-76.324-13.483c-50.458,0-102.282,17.105-154.031,50.84
				c-50.521,32.935-100.212,49.635-147.69,49.636c-20.438,0-40.17-3.129-58.643-9.304c-17.998-6.016-30.923-13.641-38.596-18.98
				c-24.273-16.886-40.733-35.031-48.923-53.93c-6.75-15.582-7.898-31.671-3.412-47.822c0.578-2.083,1.277-4.117,2.083-6.074
				c18.786,6.069,50.951,17.578,77.188,52.068c15.445,20.301,32.2,35.375,49.8,44.806c14.841,7.954,30.423,11.986,46.311,11.986
				c38.391,0,65.439-23.086,66.571-24.068l-0.156,0.118c1.273-0.972,6.83-6.254,2.731-21.828
				c-2.302-8.744-9.335-16.93-14.827-22.256c-3.896-3.778-6.771-5.463-9.322-5.463c-0.981,0-4.255,0.338-5.248,4.683l-0.045,0.192
				c-0.33,1.444-0.33,1.444-0.455,1.921c-0.17,0.638-0.52,1.964-1.824,7.213c-1.547,6.225-4.008,13.096-7.316,20.426
				c-1.615,3.575-3.263,6.876-4.911,9.841c-22.113-3.215-52.483-13.621-75.688-44.381c-40.849-54.163-76.189-68.613-90.631-68.613
				c-0.19,0-0.374,0.001-0.558,0.005c-2.413,0.061-5.269,0.395-8.487,0.992c-5.26,0.807-16.509,3.054-33.146,9.064
				c-16.166,5.842-42.056,23.734-44.108,26.271c-0.184,0.226-0.351,0.398-0.561,0.616c-0.542,0.564-1.215,1.265-2.085,2.78
				c-4.306,7.497-14.064,27.838-11.694,54.722c1.343,15.234,6.403,30.226,15.04,44.556c10.365,17.2,26.009,33.616,46.499,48.793
				c24.792,18.364,58.857,28.073,98.51,28.073c29.261,0,60.61-5.115,93.178-15.202c33.098-10.251,65.913-25.171,97.537-44.352
				c44.965-27.27,92.133-41.097,140.189-41.097c49.633,0,91.366,14.999,117.636,27.581c23.59,11.3,39.363,22.713,44.786,26.874
				c-10.44,19.265-12.668,54.823-15.231,95.726c-0.387,6.162-0.787,12.534-1.218,18.899c-1.736,25.526-10.537,47.977-26.16,66.724
				c-11.88,14.256-24.374,22.153-29.195,24.887c-7.168,4.066-15.087,7.035-23.532,8.823c-2.524,0.389-5.124,0.754-7.729,1.082
				c-1.313,0.167-2.673,0.249-4.045,0.249c-9.221,0-18.981-3.712-27.481-10.456c-9.203-7.302-16.605-17.876-21.523-30.707
				c24.499-10.222,92.093-42.299,111.946-91.773c6.771-16.868,7.224-32.038,1.347-45.088c-9.012-20.009-29.543-27.532-30.413-27.843
				c-0.147-0.053-0.301-0.094-0.455-0.125c-0.145-0.029-3.651-0.69-10.377-0.69c-7.94,0-16.873,0.884-26.551,2.63
				c-23.695,4.273-65.747,18.917-67.524,19.54c-0.382,0.133-0.726,0.336-1.016,0.589c-3.547,1.85-17.181,9.64-29.882,26.051
				c-8.458,10.93-14.739,23.435-18.672,37.174c-4.894,17.096-6.136,36.14-3.69,56.605c0.873,7.31,2.709,14.622,5.467,21.784
				c-2.649,0.808-5.207,1.54-7.639,2.187c-2.753,0.729-5.8,1.408-9.08,2.02c-6.916-6.229-15.971-11.445-26.94-15.525
				c-28.737-10.686-46.795-24.616-53.672-41.409c-5.759-14.066-2.537-27.956,1.648-37.758c0.209,0.042,0.411,0.085,0.606,0.128
				c6.287,1.408,11.431,4.714,15.29,9.83c1.835,2.429,2.986,4.574,3.828,6.139c1.182,2.206,2.302,4.29,4.757,4.29
				c4.101,0,9.033-9.101,9.582-10.139c3.729-7.049,4.196-14.417,1.348-21.311c-4.957-12.004-15.368-13.796-21.132-13.796
				c-2.094,0-3.749,0.228-4.651,0.388h-0.013c-0.367,0-0.736,0.065-1.096,0.201c-21.053,7.997-56.726,21.668-59.102,23.378
				c-2.468,1.776-5.146,4.416-8.016,11.635c-3.845,9.675-6.279,25.505,3.955,45.975c0.325,0.655,0.669,1.302,1.03,1.951
				c-7.525,8.059-18.071,17.892-29.112,23.575c-5.422-11.227-12.089-19.018-16.922-23.707c-2.81-3.125-6.146-5.62-9.892-7.403
				c-3.671-1.795-7.377-2.763-9.001-2.763c-0.042,0-0.086,0.001-0.134,0.003c-1.473-0.209-2.975-0.315-4.47-0.315
				c-17.425,0-31.601,14.175-31.601,31.601c0,13.315,8.401,25.248,20.922,29.744c0.8,0.366,1.609,0.655,2.411,0.86
				c4.049,1.025,8.7,1.624,13.856,1.779c6.034,12.474,7.545,25.954,4.486,40.094c-3.992,18.463-11.585,31.968-22.564,40.142
				c-9.167,6.828-19.075,8.61-25.771,8.905c-0.356,0.016-0.832,0.029-1.406,0.029c-5.464,0-19.261-1.16-29.333-11.896
				c-8.945-9.534-12.844-24.331-11.587-43.976c1.121-17.526,7.323-35.265,18.432-52.725c8.646-13.589,17.283-23.253,22.997-29.647
				c2.109-2.36,3.775-4.225,5.022-5.801c0.793-1.003,1.081-2.24,0.809-3.484c-0.553-2.529-3.378-4.303-5.013-5.134
				c-0.069-0.036-0.14-0.068-0.212-0.099l-41.854-17.482c-8.831-4.367-10.6-4.367-11.182-4.367c-0.175,0-0.347,0.009-0.511,0.031
				c-3.077,0.414-6.863,3.201-11.572,8.525l-0.784,0.884c-4.492,5.064-9.583,10.806-20.16,26.075
				c-20.821,30.063-41.423,77.324-21.325,131.751c6.88,18.629,18.626,33.028,34.911,42.793c14.406,8.64,31.958,13.207,50.761,13.207
				c9.656,0,19.402-1.194,28.968-3.55c15.318-3.771,29.866-11.761,42.072-23.099c11.761-10.927,21.115-24.703,27.054-39.839
				c11.296-28.788,14.684-55.185,10.078-78.512c2.874-1.067,5.598-2.229,8.128-3.456c12.397-6.031,22.573-16.392,29.415-24.827
				c10.284,7.71,22.459,12.457,34.264,17.063c6.447,2.513,12.66,4.937,18.124,7.702c-8.866,1.122-15.159,2.466-20.198,4.271
				c-38.17,13.665-49.712,35.91-52.669,52.184c-2.625,12.569-0.64,24.704,5.899,36.066c6.071,10.552,18.942,15.901,38.253,15.901
				c10.42,0,22.627-1.548,36.243-4.592c2.557-0.536,5.221-1.126,7.919-1.754c23.425-5.446,31.614-11.256,38.58-17.228
				c9.361-8.023,17.462-19.606,22.224-31.78c5.249-13.419,6.062-26.465,2.407-37.971c4.519-1.044,9.31-2.301,14.277-3.744
				c9.774,13.842,22.91,25.521,38.118,33.866c16.853,9.247,35.935,14.135,55.183,14.137h0.022c5.982,0,12.065-0.47,18.074-1.395
				c1.67-0.255,3.372-0.586,5.206-1.013c6.373-1.163,22.817-4.727,39.722-12.93c17.123-8.312,48.407-28.106,65.558-67.307
				c6.472-14.797,8.385-35.979,10.6-60.509c1.616-17.903,3.287-36.414,6.913-55.067c7.022-36.111,20.569-56.557,20.704-56.759
				c0.006-0.008,0.013-0.018,0.018-0.026c0.174-0.249,0.31-0.524,0.404-0.819C1020.811,190.293,1020.614,189.215,1019.974,188.404z
				 M693.604,439.063c-4.007,12.094-10.426,23.295-18.075,31.54c-0.372,0.399-0.844,0.696-1.368,0.857
				c-3.336,1.021-7.208,1.56-11.2,1.56c-13.908,0-26.052-6.296-32.483-16.84c-0.07-0.119-0.135-0.242-0.189-0.369
				c-0.542-1.229-5.125-12.368,0.494-24.508c5.095-11.002,16.732-19.274,34.591-24.59c9.512-2.832,17.574-3.859,27.924-5.004
				c0.114-0.013,0.229-0.018,0.343-0.018c1.439,0,2.71,0.997,3.029,2.432C698.868,414.046,697.78,426.455,693.604,439.063z
				 M812.534,354.771c-0.491,0-0.983-0.116-1.432-0.349c-0.891-0.465-1.502-1.326-1.642-2.319c-0.256-1.797-0.477-3.595-0.656-5.349
				c-2.517-24.634,0.525-47.975,9.041-69.374c6.21-15.607,15.153-29.863,26.581-42.372c0.592-0.651,1.426-1.011,2.29-1.011
				c0.167,0,0.335,0.013,0.504,0.041c5.625,0.919,19.51,4.339,26.948,16.183c5.724,9.114,6.451,21.101,2.163,35.634
				c-11.547,39.126-47.478,60.993-62.39,68.579C813.499,354.659,813.017,354.771,812.534,354.771z"/>
		</g>
	</g>
</g>
<g>
	<g>
		<g>
			<path fill="#FFB300" d="M548.307,521.022c-7.329-0.214-14.836-1.3-15.066-1.3c-0.436,0-0.791,0.008-1.063,0.021l-0.163,0.007
				c-2.669,0.132-6.588-0.67-8.494,0.126c-1.183,0.106-1.479,4.689-1.568,6.42c-0.071,1.348,0.468,1.984,2.068,3.871
				c2.39,2.821,8.377,12.459,11.146,18.893c-8.01,3.386-17.749,4.973-30.351,4.973c-11.401,0-24.904-1.323-41.283-4.046
				c-57.117-9.499-96.408-31.193-138.005-54.164c-20.179-11.144-41.045-22.664-65.121-33.579
				c-9.178-4.161-17.481-7.818-25.175-11.083c19.499-7.534,37.475-17.347,53.526-29.23c22.079-16.35,40.684-36.766,55.3-60.683
				c11.353-18.578,17.928-36.426,19.544-53.051c1.446-14.887-1.05-28.86-7.421-41.535c-7.631-15.184-20.876-28.412-38.298-38.253
				c-14.341-8.101-30.939-13.509-45.539-14.835c-7.627-0.694-15.332-1.046-22.897-1.046c-27.257,0-54.217,4.523-80.131,13.445
				c-22.904,7.885-45.039,19.203-65.785,33.639c-34.2,23.795-66.138,51.962-84.092,84.106c-10.625,19.021-0.933,30.925,0,31.795
				l45.596,41.652c0.217,0.199,0.458,0.364,0.715,0.498c1.278,0.984,4.492,2.972,9.569,2.972c3.352,0,6.906-0.878,10.563-2.61
				c11.005-5.212,20.566-16.489,23.249-27.425c1.305-5.313,2.143-14.843-0.295-18.426c-0.806-1.184-4.455-7.999-5.679-7.999
				c-0.529,0-0.917,1.987-1.423,2.2c-1.831,0.771-4.291,7.354-12.529,10.15c-1.607,0.546-3.151,1.055-4.643,1.53
				c19.942-29.389,46.34-54.072,76.769-71.694c28.856-16.712,59.231-25.917,85.527-25.917c24.106,0,41.455,7.817,48.846,22.009
				c5.863,11.258,5.19,22.434-2.12,35.171c-7.612,13.268-22.537,28.071-45.625,45.258c-7.95,5.918-17.031,11.597-27.053,16.918
				c0.39-5.948,0.781-12.506,1.204-20.198c2.566-46.805,1.952-56.073,1.925-56.424c-0.17-2.137-3.128-9.772-6.795-9.521
				c-3.012,0.209-4.872,9.426-14.788,16.313c-0.936,0.65-1.874,1.301-2.803,1.942c-2.671,1.843-5.472,3.787-8.315,5.761
				c-5.801,4.026-11.796,8.188-17.202,11.846c-16.871,10.837-18.054,15.395-19.254,28.164c-0.151,1.6-0.321,3.41-0.552,5.373
				c-0.26,2.207-0.47,4.596-0.712,7.358c-0.262,2.988-0.56,6.375-0.979,10.108l-1.758,15.641l-1.257,11.189
				c-7.262,2.01-14.485-1.91-21.496-0.362c-2.168,0.477-4.106,0.794-5.663,1.05c-1.982,0.327-5.669-0.018-6.946,0.435
				c-1.277,0.453-1.095,7.296-0.906,8.927c0.129,3.234,1.391,4.409,1.994,5.063c2.399,2.6,9.78,10.498,9.853,10.576
				c0.021,0.023,0.042,0.046,0.065,0.068l10.595,10.671c0.294,0.332,1.445,1.619,2.427,2.529c1.674,1.556,3.617,1.984,5.454,2.095
				c-4.94,41.42-16.125,90.563-22.458,116.569c-0.891,3.659-1.95,0.501-2.98,3.061c-1.95,4.843-2.26,15.311-0.739,17.346
				c0.696,0.931,1.775,1.465,2.963,1.465c0.354,0,0.721-0.048,1.087-0.142c1.957-0.502,5.648-1.565,15.799-4.55
				c8.922-2.621,21.445-6.383,30.437-9.405c26.287-8.831,27.427-11.282,31.612-35.051c0.482-2.733,1.028-5.833,1.675-9.266
				c2.555-13.523,7.191-39.334,9.544-60.266l0.18-1.601l0.667-5.938c13.236,6.521,25.874,14.06,37.618,22.447
				c31.912,22.794,69.736,48.92,108.313,69.863c43.804,23.781,79.713,36.081,109.78,37.606c1.466,0.074,2.967,0.112,4.464,0.112
				c20.232,0,38.266-6.792,47.216-10.84c12.638-5.72,22.632-12.8,24.866-17.619c4.545-9.805,10.051-25.419,14.566-37.163
				c2.082-5.412-0.61-19.6-1.25-20.677C556.529,521.286,550.098,521.076,548.307,521.022z M963.65,130.896
				c-18.021-12.635-37.317-22.472-57.082-29.622c-24.734-8.948-50.415-13.483-76.325-13.483c-50.458,0-102.282,17.104-154.031,50.84
				c-50.521,32.935-100.212,49.635-147.69,49.638c-20.438,0-40.17-3.131-58.644-9.306c-17.998-6.016-30.922-13.642-38.596-18.98
				c-24.274-16.885-40.734-35.03-48.924-53.93c-6.75-15.582-7.898-31.671-3.411-47.824c0.579-2.083,1.276-4.116,2.083-6.073
				c18.787,6.069,50.951,17.577,77.188,52.067c15.445,20.301,32.2,35.376,49.8,44.807c14.842,7.953,30.425,11.985,46.311,11.985
				c38.392,0,65.439-23.086,66.572-24.068l-0.155,0.119c1.271-0.974,6.828-6.254,2.73-21.828
				c-2.302-8.745-12.184-22.721-17.678-28.046c-3.895-3.779-9.09-8.037-10.227-5.196c-0.365,0.913-0.501,5.86-1.492,10.204
				l-0.045,0.194c-0.33,1.443-0.33,1.443-0.456,1.92c-0.171,0.638-0.521,1.964-1.825,7.214c-1.546,6.223-4.007,13.096-7.315,20.425
				c-1.614,3.575-3.263,6.877-4.911,9.842c-22.114-3.216-52.483-13.621-75.688-44.383C462.99,33.25,427.65,18.8,413.208,18.8
				c-0.189,0-0.375,0.001-0.558,0.006c-2.412,0.061-5.269,0.396-8.488,0.992c-5.26,0.808-16.508,3.055-33.145,9.064
				c-16.167,5.841-42.057,23.735-44.109,26.271c-0.185,0.226-0.351,0.398-0.561,0.618c-0.542,0.563-1.215,1.264-2.086,2.779
				c-4.305,7.498-14.064,27.839-11.694,54.722c1.343,15.234,6.403,30.226,15.04,44.557c10.366,17.2,26.01,33.615,46.499,48.791
				c24.792,18.365,58.857,28.075,98.511,28.075c29.26,0,60.61-5.117,93.177-15.202c33.098-10.251,65.912-25.172,97.536-44.352
				c44.966-27.271,92.133-41.099,140.19-41.099c49.634,0,91.366,15,117.636,27.583c23.59,11.3,39.364,22.713,44.785,26.874
				c-10.438,19.265-12.667,54.822-15.231,95.726c-0.386,6.162-0.785,12.533-1.218,18.898c-1.734,25.527-10.537,47.977-26.16,66.724
				c-11.88,14.257-24.374,22.154-29.195,24.888c-7.167,4.066-15.085,7.034-23.531,8.823c-2.524,0.388-5.125,0.754-7.729,1.082
				c-1.313,0.165-2.674,0.249-4.045,0.249c-9.222,0-18.98-3.714-27.48-10.456c-9.203-7.302-16.606-17.878-21.525-30.709
				c24.5-10.221,92.093-42.298,111.948-91.772c6.768-16.866,7.222-32.037,1.346-45.087c-9.011-20.01-21.053-26.729-21.924-27.039
				c-0.147-0.053-11.777-1.927-13.228-1.888c-0.148,0.004,0.631,0.267-6.095,0.267c-7.939,0-16.871,0.885-26.55,2.63
				c-23.695,4.274-65.745,18.917-67.525,19.54c-0.382,0.133-0.725,0.335-1.014,0.589c-3.548,1.85-17.182,9.64-29.884,26.052
				c-8.456,10.929-14.738,23.436-18.672,37.174c-4.893,17.096-6.134,36.141-3.69,56.604c0.874,7.31,2.709,14.622,5.467,21.784
				c-2.648,0.809-5.206,1.54-7.638,2.187c-2.754,0.729-5.801,1.409-9.08,2.021c-6.916-6.229-15.97-11.446-26.94-15.524
				c-28.736-10.688-46.795-24.618-53.672-41.412c-5.76-14.066-2.537-27.955,1.648-37.756c0.208,0.041,0.412,0.085,0.607,0.128
				c6.285,1.408,11.43,4.714,15.289,9.829c1.836,2.429,2.986,4.573,3.827,6.139c1.184,2.207,2.302,4.29,4.757,4.29
				c4.102,0,9.033-9.101,9.584-10.138c3.729-7.049,4.195-14.418,1.348-21.312c-4.959-12.004-11.574-18.334-17.338-18.334
				c-2.094,0-9.195,4.991-9.555,5.126c-21.053,7.998-56.725,21.667-59.103,23.378c-2.466,1.777-7.234-0.551-9.15,6.977
				c-3.081,12.093-5.145,30.163,5.09,50.634c0.326,0.655,0.67,1.301,1.031,1.95c-7.526,8.059-18.071,17.893-29.112,23.575
				c-5.422-11.227-12.089-19.018-16.921-23.706c-2.811-3.125-6.137-5.646-9.892-7.403c-7.457-3.493-12.11-3.075-13.606-3.075
				c-17.425,0-31.6,14.175-31.6,31.601c0,13.314,8.401,25.248,20.923,29.742c0.798,0.368,1.608,0.655,2.41,0.861
				c4.049,1.026,8.701,1.624,13.857,1.78c6.033,12.473,7.545,25.952,4.485,40.093c-3.991,18.463-11.585,31.968-22.564,40.143
				c-9.168,6.827-19.076,8.61-25.772,8.904c-0.356,0.016-0.832,0.029-1.405,0.029c-5.464,0-19.261-1.159-29.334-11.896
				c-8.945-9.534-12.843-24.331-11.586-43.976c1.121-17.525,7.322-35.264,18.432-52.725c8.646-13.588,17.282-23.252,22.997-29.646
				c2.109-2.361,3.775-4.226,5.022-5.803c0.793-1.002,1.08-2.239,0.809-3.483c-0.554-2.528-5.846-10.028-7.48-10.859
				c-0.07-0.035-0.14-0.068-0.212-0.099l-39.387-11.757c-8.831-4.368-10.599-4.368-11.181-4.368c-0.175,0-0.348,0.011-0.511,0.033
				c-3.077,0.413-6.863,3.201-11.572,8.524l-0.784,0.883c-4.492,5.065-9.583,10.808-20.16,26.077
				c-20.823,30.063-41.424,77.323-21.326,131.751c6.88,18.628,18.626,33.026,34.912,42.793
				c14.405,8.639,31.958,13.206,50.761,13.206c9.656,0,19.401-1.195,28.968-3.551c15.317-3.771,29.866-11.76,42.071-23.098
				c11.761-10.927,21.117-24.703,27.054-39.839c11.297-28.788,14.684-55.185,10.08-78.511c2.873-1.068,5.597-2.229,8.127-3.458
				c12.397-6.03,22.573-16.391,29.414-24.827c10.285,7.711,22.46,12.459,34.265,17.063c6.448,2.514,12.659,4.937,18.124,7.702
				c-8.867,1.122-15.159,2.468-20.199,4.271c-38.17,13.665-49.711,35.911-52.669,52.184c-2.625,12.569-0.64,24.704,5.899,36.066
				c6.071,10.553,18.943,15.901,38.255,15.901c10.419,0,22.626-1.548,36.243-4.593c2.556-0.536,5.22-1.125,7.919-1.753
				c23.423-5.446,31.614-11.257,38.578-17.227c9.362-8.024,17.463-19.607,22.224-31.781c5.25-13.419,6.063-26.464,2.408-37.97
				c4.519-1.045,9.309-2.301,14.277-3.745c9.775,13.842,22.91,25.522,38.118,33.866c16.853,9.248,35.936,14.136,55.183,14.138h0.023
				c5.981,0,12.063-0.47,18.074-1.396c1.668-0.256,3.371-0.587,5.203-1.013c6.374-1.163,22.82-4.726,39.724-12.93
				c17.122-8.311,48.407-28.106,65.557-67.307c6.474-14.797,8.387-35.979,10.6-60.509c1.617-17.902,3.287-36.414,6.915-55.068
				c7.021-36.109,20.145-55.941,20.281-56.143c0.005-0.009,0.011-0.018,0.018-0.027c0.173-0.25,0.26-0.544,0.404-0.819
				C1013.717,174.379,1008.627,162.434,963.65,130.896z M686.619,430.949c-4.01,12.094-10.427,23.296-18.076,31.54
				c-0.374,0.401-0.845,0.696-1.369,0.857c-3.334,1.021-7.207,1.56-11.199,1.56c-13.908,0-26.051-6.296-32.482-16.841
				c-0.072-0.118-0.138-0.24-0.192-0.367c-0.541-1.229-5.124-12.37,0.496-24.509c5.095-11.002,16.73-19.274,34.589-24.59
				c9.514-2.832,17.575-3.86,27.926-5.003c0.114-0.013,0.229-0.019,0.341-0.019c1.441,0,2.713,0.997,3.032,2.432
				C691.883,405.935,690.794,418.342,686.619,430.949z M806.584,345.624c-0.492,0-0.984-0.117-1.432-0.351
				c-0.89-0.463-1.502-1.325-1.644-2.318c-0.256-1.796-0.475-3.595-0.654-5.349c-2.518-24.634,0.523-47.973,9.04-69.374
				c6.21-15.607,15.154-29.863,26.582-42.371c0.592-0.651,1.425-1.012,2.29-1.012c0.167,0,0.335,0.014,0.503,0.041
				c5.625,0.92,19.51,4.34,26.949,16.183c5.723,9.114,6.451,21.101,2.163,35.633c-11.547,39.127-47.478,60.995-62.39,68.58
				C807.55,345.512,807.066,345.624,806.584,345.624z"/>
		</g>
	</g>
</g>
<g>
	<path fill-rule="evenodd" clip-rule="evenodd" fill="#FFCD0D" d="M57.094,377.028c9.06-0.468,20.417-3.755,30.318-7.116
		c7.933-2.692,12.679-4.658,15.137-5.692s2.65,8.457,0.776,16.086c-2.499,10.18-11.73,20.7-21.563,25.359
		c-11.34,5.371-17.251-0.303-17.251-0.303l-33.638-33.164C30.874,372.198,40.776,377.873,57.094,377.028z M523.028,520.379
		c-0.036,0.707,18.976,19.321,13.11,31.741c-5.475,11.594-13.455,18.975-13.455,18.975s11.396-11.7,20.749-22.136
		c12.383-13.814,14.806-24.834,13.944-25.636c-3.633-3.569-23.822-4.614-27.271-4.445C527.447,519.009,523.09,519.2,523.028,520.379
		z M642.822,259.614c8.329,1.865,13.707,6.509,17.088,10.987c3.986,5.277,4.921,9.196,6.106,9.196c0.65,0,3.703-2.559,6.839-8.485
		c2.618-4.948,4.206-11.454,1.223-18.675c-6.343-15.359-22.93-11.425-22.93-11.425l-42.777,17.583
		C608.371,258.795,631.496,257.078,642.822,259.614z M566.538,139.812c0,0,21.09-0.089,31.956-6.298
		c10.868-6.209,17.554-8.453,17.554-8.453s5.52-3.838,1.639-18.586c-2.027-7.702-8.241-15.247-13.987-20.818
		c-5.071-4.918-8.498-6.181-9.381-2.318c-0.818,3.576,0.123-0.521-2.338,9.383c-1.353,5.444-3.646,12.418-7.5,20.955
		C574.148,136.553,566.538,139.812,566.538,139.812z"/>
	<g>
		<g>
			<path fill="#FFE02E" d="M556.322,523.83c-2.935,4.012-3.325,4.302-5.829,6.827c-14.085,14.217-33.313,22.306-90.256,12.838
				c-84.965-14.129-129.375-54.191-203.9-87.978c-11.436-5.185-22.3-9.938-32.377-14.1c38.896-13.604,83.316-40.052,114.663-91.344
				c57.139-93.5-25.264-138.955-69.347-142.963C143.23,195.652,53.472,282.151,21.387,339.595
				c-9.745,17.446-2.643,24.07-2.643,24.07l45.596,41.653c0,0-4.443-6.603,6.209-24.84
				c64.689-110.748,199.242-138.693,225.118-89.013c12.468,23.938-2.07,49.682-48.646,84.355
				c-10.043,7.476-21.084,14.021-32.377,19.717c0.605-8.63,1.115-17.316,1.573-25.659c2.367-43.141,2.032-54.206,1.93-55.491
				c-0.252-3.197-10.349,4.197-19.525,10.528c-8.147,5.621-17.513,12.191-25.597,17.659c-18.79,12.069-16.553,15.516-18.407,31.292
				c-0.541,4.594-0.89,10.329-1.69,17.45c-1.02,9.073-2.115,18.818-3.249,28.911c-9.407,2.652-17.556,4.612-23.679,5.961
				c-8.614,1.9-13.013,1.254-9.908,4.617c2.42,2.623,9.84,10.562,9.84,10.562l10.656,10.733c0,0,1.266,1.445,2.274,2.381
				c1.437,1.334,3.281,1.381,6.826,1.256c-0.009,0.076-0.017,0.153-0.026,0.229c-4.747,42.244-16.384,93.426-22.901,120.188
				c-2.769,11.369-6.138,18.674-3.457,17.986c2.032-0.521,6.189-1.727,15.694-4.521c9.697-2.851,21.641-6.451,30.324-9.37
				c28.395-9.539,25.263-10.378,31.226-41.95c2.292-12.137,7.111-38.696,9.51-60.035c0.442-3.941,0.889-7.912,1.336-11.893
				c13.338,6.311,27.6,14.321,42.02,24.621c65.203,46.574,150.621,103.558,216.447,106.896c35.051,1.776,70.007-18.864,73.569-26.55
				c4.514-9.739,11.396-26.466,15.752-38.312C558.995,522.664,557.353,522.42,556.322,523.83z M1006.729,166.451
				c0,0-130.874-165.634-331.608-34.774c-122.645,79.951-212.461,46.302-248.4,21.301c-53.56-37.259-61.919-75.018-53.554-105.134
				c0.918-3.302,2.065-6.31,3.372-9.05c20.662,6.613,54.069,18.116,81.365,53.995c77.672,102.098,158.175,32.259,158.175,32.259
				s-71.97,15.052-117.505-45.32C458.24,26.25,423.569,12.016,409.94,12.355c-2.62,0.066-5.51,0.478-8.033,0.947
				c-5.022,0.767-16.097,2.954-32.621,8.925c-15.862,5.732-41.217,23.409-42.752,25.305c-0.826,1.019-1.361,1.239-2.366,2.988
				c-7.954,13.851-38.499,79.217,48.999,144.029c62.875,46.574,179.971,32.523,285.767-31.64
				c166.235-100.82,305.891,13.29,308.261,15.243c-12.914,20.615-14.059,66.577-17.391,115.604
				c-4.213,61.994-48.471,89.31-56.92,94.101c-8.846,5.016-17.584,7.719-24.514,9.179c-2.527,0.391-5.152,0.761-7.892,1.107
				c-19.479,2.461-45.506-11.535-57.38-45.734c20.367-8.243,92.688-40.562,113.006-91.19c20.756-51.72-27.229-68.852-27.229-68.852
				s-12.06-2.333-35.788,1.945c-23.728,4.278-67.052,19.415-67.052,19.415l0.238,0.015l-0.093,0.019
				c0,0-61.849,29.174-51.345,117.087c0.981,8.223,3.213,16.33,6.524,24.11c-3.693,1.18-7.373,2.27-10.982,3.229
				c-3.443,0.913-7.081,1.685-10.85,2.351c-6.425-6.112-15.262-11.563-27.051-15.946c-101.025-37.563-41.33-103.366-41.33-103.366
				s-55.979,21.188-58.38,22.916c-1.869,1.345-4.259,3.504-6.942,10.261c-3.637,9.149-5.855,24.039,3.845,43.44
				c0.651,1.305,1.354,2.552,2.092,3.757c-8.345,9.159-21.13,21.384-34.451,27.323c-5.302-12.072-12.278-20.511-17.647-25.705
				c-2.515-2.819-5.574-5.148-9.028-6.782c-4.524-2.138-10.766-2.758-12.242-2.758c-15.737,0-28.495,12.758-28.495,28.495
				c0,12.405,7.929,22.955,18.994,26.866c0.652,0.309,1.319,0.555,1.997,0.729c4.397,1.113,9.522,1.672,15.028,1.723
				c5.984,11.523,9.406,26.156,5.586,43.817c-9.498,43.916-36.743,50.854-51.233,51.492c-6.603,0.291-49.335-0.146-45.562-59.143
				c1.315-20.555,9.219-38.963,18.91-54.192c11.87-18.656,23.633-29.93,28.204-35.709c1.302-1.645-3.177-3.926-3.177-3.926
				l-41.95-17.521c0,0-8.617-4.268-9.987-4.083c-3.197,0.43-7.772,5.37-9.661,7.504c-4.557,5.152-9.612,10.638-20.716,26.671
				c-20.476,29.563-40.582,75.787-20.964,128.907c17.825,48.267,68.009,61.092,110.984,50.509c30.751-7.57,55.46-31.7,66.978-61.053
				c13.154-33.52,13.826-59.69,9.37-79.391c3.624-1.241,7.111-2.655,10.369-4.239c13.213-6.425,23.868-18.106,30.258-26.387
				c18.696,15.422,46.232,19.661,62.489,31.199c-11.271,1.063-21.373,2.476-28.737,5.113c-36.33,13.007-47.758,33.76-50.669,49.857
				c-2.048,9.772-1.569,21.563,5.542,33.922c10.999,19.113,45.898,15.468,71.171,9.817c2.48-0.519,5.096-1.097,7.854-1.737
				c21.958-5.107,30.015-10.351,37.26-16.562c16.496-14.139,32.931-44.123,22.537-69.646c0.977-0.217,1.964-0.439,2.97-0.669
				c5.548-1.272,11.162-2.784,16.701-4.436c21.666,32.107,62.843,54.354,109.646,47.153c1.688-0.26,3.368-0.594,5.041-0.983
				c6.566-1.194,22.507-4.679,39.004-12.685c14.786-7.176,46.817-26.326,64.068-65.758c10.866-24.841,8.663-70.45,17.311-114.924
				c7.243-37.261,21.176-57.902,21.176-57.902s-0.014-0.013-0.038-0.036L1006.729,166.451z M658.304,448.751
				c-10.909,3.34-30.646,1.612-40.125-13.927c-0.817-1.861-12.881-31.179,33.129-44.873c9.441-2.81,17.495-3.801,27.382-4.893
				C683.085,404.893,673.137,432.767,658.304,448.751z M797.463,326.183c-5.547-54.274,17.502-90.372,34.825-109.334
				c9.46,1.547,37.973,9.449,26.636,47.874c-11.334,38.408-47.455,59.891-60.82,66.688
				C797.86,329.702,797.646,327.961,797.463,326.183z"/>
		</g>
	</g>
	<path fill="#FFF7B7" d="M71.927,377.9c-0.105,0.257-0.207,0.518-0.31,0.777c-0.357,0.599-0.714,1.197-1.067,1.801
		c-10.652,18.237-6.209,24.84-6.209,24.84l-45.596-41.653c0,0-5.522-5.163-0.128-18.362c0.42-0.981,0.864-1.97,1.329-2.951
		c0.436-0.889,0.909-1.804,1.442-2.757c0.866-1.551,1.777-3.124,2.727-4.715c0.245-0.362,0.492-0.721,0.744-1.066
		c4.062-5.593,15.022-5.906,23.163,8.833c2.776,5.026,6.882-2.037,6.882-2.037s-2.142,9.581,1.756,10.95
		C72.556,357.145,74.529,371.613,71.927,377.9z M523.352,563.278c-1.684,3.558,3.383,3.447,3.383,3.447s-5.184,2.229-4.756,5.484
		c1.106,8.486-3.121,13.464-6.799,15.634c13.181-5.834,22.501-12.729,24.25-16.503c4.514-9.739,11.396-26.466,15.752-38.312
		c3.813-10.365,2.171-10.609,1.141-9.199c-2.935,4.012-3.325,4.302-5.829,6.827c-6.968,7.032-15.197,12.563-28.624,15.214
		C525.576,546.165,529.294,550.724,523.352,563.278z M426.002,326.037c5.134,0.476,1.207,7.489,1.207,7.489s6.319-5.487,9.542-2.294
		c9.448,9.36,26.166,8.148,30.429,3.321c0.698-0.791,1.435-1.625,2.193-2.484c5.488-6.54,10.002-11.215,12.451-14.312
		c1.302-1.645-3.177-3.926-3.177-3.926l-41.95-17.521c0,0-8.617-4.268-9.987-4.083c-3.197,0.43-7.772,5.37-9.661,7.504
		c-2.865,3.238-5.927,6.611-10.565,12.651C404.989,317.463,408.826,324.44,426.002,326.037z M574.52,125.044
		c0.027,0.021,0.047,0.042,0.077,0.062c3.683,0.374,7.208,5.285,2.323,12.267c-1.667,2.38,3.739,3.084,3.739,3.084
		s-5.501,1.081-5.702,3.272c-0.021,0.702-0.167,1.28-0.405,1.766c25.131-6.225,41.527-20.447,41.527-20.447
		S598.145,128.797,574.52,125.044z"/>
</g>
</svg>
